<svg width="42" height="42" viewBox="0 0 42 42" fill="none" xmlns="http://www.w3.org/2000/svg">
<path fill-rule="evenodd" clip-rule="evenodd" d="M19.152 5.6875H22.848C26.0645 5.6875 28.6125 5.6875 30.6058 5.95525C32.6567 6.23175 34.3175 6.81275 35.6283 8.12175C36.9372 9.4325 37.5182 11.0933 37.7948 13.1443C38.059 15.1147 38.0625 17.6242 38.0625 20.7882C38.6645 21.2835 39.1423 21.9258 39.445 22.659C39.6567 23.1665 39.739 23.6915 39.7775 24.2463C39.8125 24.7782 39.8125 25.4275 39.8125 26.2063V26.2937C39.8125 27.0725 39.8125 27.7218 39.7775 28.2537C39.7556 28.7976 39.6432 29.3341 39.445 29.841C39.2033 30.4251 38.849 30.9558 38.4022 31.4029C37.9554 31.85 37.4249 32.2047 36.841 32.4468C36.3335 32.6567 35.8085 32.739 35.2537 32.7757C35.0236 32.7914 34.7931 32.8013 34.5625 32.8055V35C34.5625 35.3481 34.4242 35.6819 34.1781 35.9281C33.9319 36.1742 33.5981 36.3125 33.25 36.3125C32.9019 36.3125 32.5681 36.1742 32.3219 35.9281C32.0758 35.6819 31.9375 35.3481 31.9375 35V32.8125H10.0625V35C10.0625 35.3481 9.92422 35.6819 9.67808 35.9281C9.43194 36.1742 9.0981 36.3125 8.75 36.3125C8.4019 36.3125 8.06806 36.1742 7.82192 35.9281C7.57578 35.6819 7.4375 35.3481 7.4375 35V32.8038C7.20689 32.8001 6.9764 32.7908 6.74625 32.7757C6.20257 32.755 5.66615 32.6438 5.159 32.4468C4.57478 32.2049 4.04394 31.8503 3.59683 31.4032C3.14972 30.9561 2.79511 30.4252 2.55325 29.841C2.34325 29.3335 2.261 28.8085 2.22425 28.2537C2.1875 27.7218 2.1875 27.0725 2.1875 26.2937V26.2063C2.1875 25.4275 2.1875 24.7782 2.2225 24.2463C2.261 23.6897 2.345 23.1665 2.555 22.659C2.85568 21.9311 3.3304 21.2881 3.9375 20.7865C3.9375 17.626 3.941 15.1147 4.20525 13.1443C4.48175 11.0933 5.06275 9.4325 6.37175 8.12175C7.6825 6.81275 9.34325 6.23175 11.3942 5.95525C13.3892 5.6875 15.9355 5.6875 19.152 5.6875ZM6.5625 19.7383L6.74625 19.7242C7.1855 19.6945 7.707 19.6893 8.3125 19.6893V18.284C8.3125 16.7125 8.3125 15.4 8.4525 14.3605C8.5995 13.2615 8.925 12.2693 9.72125 11.473C10.5192 10.675 11.5115 10.3495 12.6087 10.2025C13.65 10.0625 14.9625 10.0625 16.534 10.0625H25.466C27.0392 10.0625 28.35 10.0625 29.3895 10.2025C30.4885 10.3495 31.4808 10.675 32.277 11.4712C33.075 12.2692 33.4005 13.2615 33.5475 14.3587C33.6875 15.4 33.6875 16.7125 33.6875 18.284V19.6875C34.2713 19.6836 34.855 19.7005 35.4375 19.7383C35.4323 17.052 35.4025 15.057 35.1925 13.4942C34.9562 11.7337 34.5117 10.7188 33.7715 9.97675C33.0312 9.23825 32.0162 8.79375 30.2557 8.5575C28.4585 8.316 26.0872 8.3125 22.75 8.3125H19.25C15.9128 8.3125 13.5433 8.316 11.7425 8.5575C9.98375 8.79375 8.96875 9.23825 8.2285 9.9785C7.48825 10.7188 7.04375 11.7337 6.8075 13.4925C6.5975 15.0553 6.56775 17.0503 6.5625 19.7365M31.0625 19.6857V18.3732C31.0625 16.6862 31.059 15.5523 30.9453 14.707C30.8368 13.9003 30.6495 13.5537 30.4202 13.3262C30.191 13.0987 29.848 12.9115 29.0412 12.8012C28.196 12.6892 27.062 12.6858 25.375 12.6858H22.3125V19.6857H31.0625ZM19.6875 19.6857V12.6858H16.625C14.938 12.6858 13.804 12.6892 12.9588 12.803C12.152 12.9115 11.8055 13.0988 11.578 13.328C11.3505 13.5573 11.1632 13.9003 11.053 14.707C10.941 15.5523 10.9375 16.6862 10.9375 18.3732V19.6857H19.6875ZM6.92475 22.3405C6.503 22.3702 6.29825 22.421 6.1635 22.477C5.89786 22.5869 5.65649 22.7482 5.4532 22.9515C5.24991 23.1547 5.08869 23.3961 4.97875 23.6618C4.92275 23.7965 4.872 24.0013 4.84225 24.423C4.8125 24.8553 4.8125 25.4152 4.8125 26.2482C4.8125 27.0812 4.8125 27.6413 4.84225 28.0735C4.872 28.4952 4.92275 28.7 4.97875 28.8347C5.201 29.372 5.62625 29.7972 6.1635 30.0195C6.29825 30.0755 6.503 30.1263 6.92475 30.156C7.357 30.1858 7.917 30.1858 8.75 30.1858H33.25C34.083 30.1858 34.643 30.1858 35.0752 30.156C35.497 30.1263 35.7018 30.0755 35.8365 30.0195C36.3738 29.7972 36.799 29.372 37.0213 28.8347C37.0773 28.7 37.128 28.4952 37.1577 28.0735C37.1875 27.6413 37.1875 27.0812 37.1875 26.2482C37.1875 25.4152 37.1875 24.8553 37.1577 24.423C37.128 24.0013 37.0773 23.7965 37.0213 23.6618C36.9113 23.3961 36.7501 23.1547 36.5468 22.9515C36.3435 22.7482 36.1021 22.5869 35.8365 22.477C35.7018 22.421 35.497 22.3702 35.0752 22.3405C34.4673 22.3125 33.8586 22.3032 33.25 22.3125H8.75C7.917 22.3125 7.357 22.3125 6.92475 22.3423" fill="#45894D"/>
</svg>
