<svg width="29" height="33" viewBox="0 0 29 33" fill="none" xmlns="http://www.w3.org/2000/svg">
<path d="M4.94725 32.4433L6.97375 27.9108C6.47558 27.5689 5.99725 27.2108 5.53875 26.8363C5.08142 26.4629 4.64392 26.0452 4.22625 25.5833C4.03842 25.6708 3.84067 25.7367 3.633 25.781C3.42533 25.8242 3.22408 25.8458 3.02925 25.8458C2.20092 25.8458 1.48925 25.5483 0.89425 24.9532C0.298083 24.3571 0 23.6454 0 22.8183C0 22.3469 0.107333 21.8983 0.322 21.4725C0.536667 21.0467 0.828334 20.6961 1.197 20.4207C0.963667 19.7499 0.79275 19.0721 0.68425 18.3872C0.57575 17.7024 0.520334 16.9802 0.518 16.2208C0.515667 15.4613 0.571083 14.7397 0.68425 14.056C0.797417 13.3723 0.968917 12.6939 1.19875 12.0208C0.828917 11.7443 0.536667 11.3937 0.322 10.969C0.107333 10.5443 0 10.0963 0 9.625C0 8.79667 0.2975 8.085 0.8925 7.49C1.48867 6.89383 2.20033 6.59575 3.0275 6.59575C3.2235 6.59575 3.42533 6.61792 3.633 6.66225C3.84067 6.70542 4.039 6.77075 4.228 6.85825C5.1905 5.80825 6.28017 4.92742 7.497 4.21575C8.71383 3.50408 10.0222 2.98492 11.4222 2.65825C11.5237 1.91742 11.8685 1.28917 12.4565 0.7735C13.0457 0.257834 13.7107 0 14.4515 0C15.1923 0 15.8573 0.2485 16.4465 0.7455C17.0357 1.2425 17.3798 1.85792 17.479 2.59175C18.9245 2.91842 20.2557 3.43583 21.4725 4.144C22.6893 4.85217 23.7796 5.72775 24.7432 6.77075C24.9311 6.68325 25.116 6.629 25.298 6.608C25.48 6.587 25.6649 6.5765 25.8527 6.5765C26.6811 6.5765 27.3927 6.874 27.9877 7.469C28.5839 8.064 28.882 8.77567 28.882 9.604C28.882 10.0753 28.777 10.5204 28.567 10.9393C28.357 11.3581 28.0694 11.7052 27.7042 11.9805C27.9376 12.6572 28.1091 13.3438 28.2187 14.0402C28.3284 14.7356 28.3832 15.4624 28.3832 16.2208C28.3832 16.9791 28.3284 17.7158 28.2187 18.431C28.1091 19.1462 27.9376 19.8386 27.7042 20.5082C28.0449 20.7847 28.315 21.1208 28.5145 21.5163C28.7152 21.9129 28.8155 22.3463 28.8155 22.8165C28.8155 23.6448 28.5174 24.3565 27.9212 24.9515C27.3262 25.5477 26.6146 25.8458 25.7862 25.8458C25.5972 25.8458 25.4117 25.8294 25.2297 25.7968C25.0478 25.7641 24.8628 25.7157 24.675 25.6515C24.2573 26.1135 23.8327 26.5347 23.401 26.915C22.9693 27.2953 22.4787 27.657 21.9292 28L23.8665 32.4415H22.1112L20.5152 28.7945C20.0171 29.036 19.5224 29.2396 19.0312 29.4053C18.5401 29.5698 18.0227 29.7185 17.479 29.8515C17.3787 30.5842 17.0345 31.199 16.4465 31.696C15.8585 32.193 15.1935 32.4415 14.4515 32.4415C13.7095 32.4415 13.0445 32.1837 12.4565 31.668C11.8685 31.1523 11.5237 30.5241 11.4222 29.7833C10.8727 29.6514 10.3507 29.5027 9.856 29.337C9.36133 29.1725 8.86492 28.9689 8.36675 28.7263L6.70425 32.4415L4.94725 32.4433ZM7.532 26.5107L10.9847 18.8388C10.6884 18.4713 10.4627 18.0676 10.3075 17.6278C10.1535 17.1879 10.0765 16.7189 10.0765 16.2208C10.0765 15.0296 10.5082 14.0029 11.3715 13.1407C12.2337 12.2774 13.2603 11.8457 14.4515 11.8457C15.6427 11.8457 16.6693 12.2774 17.5315 13.1407C18.3937 14.0041 18.8253 15.0308 18.8265 16.2208C18.8265 16.7189 18.7361 17.1973 18.5552 17.6558C18.3744 18.1143 18.1329 18.5377 17.8307 18.9262L21.2835 26.579C21.6802 26.3235 22.0587 26.0447 22.4192 25.7425C22.7786 25.4415 23.1198 25.1032 23.443 24.7275C23.2073 24.472 23.0341 24.1832 22.9232 23.8612C22.8124 23.5404 22.757 23.1922 22.757 22.8165C22.757 21.8832 23.1286 21.1091 23.8717 20.4943C24.6137 19.8806 25.4176 19.6677 26.2832 19.8555C26.4582 19.2722 26.6012 18.6847 26.712 18.0933C26.8228 17.5017 26.8777 16.8776 26.8765 16.2208C26.8753 15.5639 26.8205 14.9362 26.712 14.3377C26.6035 13.7393 26.4606 13.1489 26.2832 12.5667C25.4176 12.7546 24.6242 12.5411 23.9032 11.9262C23.1846 11.3114 22.8252 10.5373 22.8252 9.604C22.8252 9.275 22.8894 8.95242 23.0177 8.63625C23.1461 8.32125 23.3106 8.036 23.5112 7.7805C22.6654 6.867 21.7146 6.11333 20.6587 5.5195C19.6052 4.9245 18.4759 4.46658 17.2707 4.14575C17.0631 4.70925 16.7055 5.16892 16.198 5.52475C15.6905 5.87942 15.1083 6.05675 14.4515 6.05675C13.7947 6.05675 13.2125 5.87942 12.705 5.52475C12.1975 5.17008 11.8393 4.71042 11.6305 4.14575C10.4125 4.46658 9.27617 4.92625 8.2215 5.52475C7.16683 6.12208 6.21658 6.88042 5.37075 7.79975C5.57142 8.05642 5.73592 8.34225 5.86425 8.65725C5.99258 8.97225 6.05675 9.29483 6.05675 9.625C6.05675 10.5805 5.68925 11.3528 4.95425 11.942C4.21925 12.5312 3.41833 12.7458 2.5515 12.586C2.3765 13.1693 2.24525 13.7568 2.15775 14.3483C2.07025 14.9398 2.0265 15.5639 2.0265 16.2208C2.0265 16.8776 2.07025 17.5017 2.15775 18.0933C2.24525 18.6847 2.3765 19.2722 2.5515 19.8555C3.37283 19.6677 4.16267 19.8753 4.921 20.4785C5.67933 21.0817 6.0585 21.861 6.0585 22.8165C6.0585 23.191 6.00308 23.5247 5.89225 23.8175C5.78025 24.1103 5.60642 24.3845 5.37075 24.64C5.69392 25.0157 6.03575 25.3464 6.39625 25.6322C6.75675 25.9181 7.13533 26.2115 7.532 26.5125M8.946 27.3263C9.35667 27.5398 9.78542 27.7218 10.2322 27.8723C10.6802 28.0216 11.1469 28.1627 11.6322 28.2957C11.8399 27.7322 12.1975 27.2726 12.705 26.9167C13.2113 26.5621 13.7935 26.3848 14.4515 26.3848C15.1095 26.3848 15.6917 26.5621 16.198 26.9167C16.7055 27.2726 17.0631 27.7322 17.2707 28.2957C17.7327 28.1627 18.179 28.0327 18.6095 27.9055C19.0388 27.7772 19.4588 27.6063 19.8695 27.3928L16.5917 20.0235C16.2639 20.1915 15.9273 20.3292 15.582 20.4365C15.2367 20.5427 14.8598 20.5958 14.4515 20.5958C14.0362 20.5958 13.643 20.5409 13.272 20.4312C12.901 20.3216 12.551 20.1565 12.222 19.936L8.946 27.3263Z" fill="#45894D"/>
</svg>
