<svg width="20" height="20" viewBox="0 0 20 20" fill="none" xmlns="http://www.w3.org/2000/svg">
<path d="M6.61631 2.04494C6.38197 2.27935 6.25033 2.59723 6.25033 2.92869C6.25033 3.26014 6.38197 3.57803 6.61631 3.81244L12.8038 9.99994L6.61631 16.1874C6.38861 16.4232 6.26262 16.7389 6.26547 17.0667C6.26832 17.3944 6.39978 17.708 6.63154 17.9397C6.8633 18.1715 7.17681 18.3029 7.50456 18.3058C7.83231 18.3086 8.14806 18.1826 8.38381 17.9549L15.4551 10.8837C15.6894 10.6493 15.821 10.3314 15.821 9.99994C15.821 9.66848 15.6894 9.3506 15.4551 9.11619L8.38381 2.04494C8.1494 1.8106 7.83152 1.67896 7.50006 1.67896C7.16861 1.67896 6.85072 1.8106 6.61631 2.04494Z" fill="white"/>
</svg>
