<svg width="11" height="8" viewBox="0 0 11 8" fill="none" xmlns="http://www.w3.org/2000/svg">
<path d="M6.43331 1.1345C6.37191 1.07728 6.32266 1.00828 6.2885 0.931618C6.25434 0.854952 6.23597 0.772191 6.23449 0.688272C6.23301 0.604353 6.24844 0.520995 6.27988 0.443171C6.31131 0.365348 6.3581 0.294653 6.41745 0.235304C6.4768 0.175955 6.54749 0.129168 6.62532 0.0977339C6.70314 0.0662997 6.7865 0.0508627 6.87042 0.0523434C6.95433 0.053824 7.0371 0.072192 7.11376 0.106352C7.19043 0.140512 7.25943 0.189764 7.31665 0.251169L10.65 3.5845C10.767 3.70169 10.8328 3.86054 10.8328 4.02617C10.8328 4.1918 10.767 4.35065 10.65 4.46784L7.31665 7.80117C7.25943 7.86258 7.19043 7.91183 7.11376 7.94599C7.0371 7.98015 6.95433 7.99851 6.87042 8C6.7865 8.00148 6.70314 7.98604 6.62532 7.95461C6.54749 7.92317 6.4768 7.87638 6.41745 7.81703C6.3581 7.75769 6.31131 7.68699 6.27988 7.60917C6.24844 7.53134 6.23301 7.44799 6.23449 7.36407C6.23597 7.28015 6.25434 7.19739 6.2885 7.12072C6.32266 7.04405 6.37191 6.97505 6.43331 6.91784L8.69998 4.65117H0.624981C0.45922 4.65117 0.300249 4.58532 0.183038 4.46811C0.0658281 4.3509 -1.9451e-05 4.19193 -1.9451e-05 4.02617C-1.9451e-05 3.86041 0.0658281 3.70144 0.183038 3.58423C0.300249 3.46702 0.45922 3.40117 0.624981 3.40117H8.69998L6.43331 1.1345Z" fill="white"/>
</svg>
