<svg width="70" height="23" viewBox="0 0 70 23" fill="none" xmlns="http://www.w3.org/2000/svg">
<path d="M2 10C1.17157 10 0.5 10.6716 0.5 11.5C0.5 12.3284 1.17157 13 2 13V11.5V10ZM69.0682 12.5607C69.654 11.9749 69.654 11.0251 69.0682 10.4393L59.5223 0.893398C58.9365 0.307611 57.9868 0.307611 57.401 0.893398C56.8152 1.47919 56.8152 2.42893 57.401 3.01472L65.8863 11.5L57.401 19.9853C56.8152 20.5711 56.8152 21.5208 57.401 22.1066C57.9868 22.6924 58.9365 22.6924 59.5223 22.1066L69.0682 12.5607ZM2 11.5V13H68.0076V11.5V10H2V11.5Z" fill="#45894D"/>
</svg>
