<svg width="42" height="42" viewBox="0 0 42 42" fill="none" xmlns="http://www.w3.org/2000/svg">
<path d="M39.375 18.7031H34.5335L27.3312 11.5008C27.1182 11.2871 26.865 11.1176 26.5863 11.0022C26.3075 10.8867 26.0087 10.8276 25.707 10.8281H7.26469C6.88659 10.828 6.5143 10.9213 6.18088 11.0996C5.84746 11.2779 5.56321 11.5357 5.35336 11.8502L0.49219 19.1412C0.38478 19.3031 0.327695 19.4932 0.328127 19.6875V27.5625C0.328127 28.1717 0.570119 28.7559 1.00087 29.1866C1.43161 29.6174 2.01583 29.8594 2.625 29.8594H5.67656C5.90249 30.972 6.50613 31.9723 7.38519 32.6908C8.26424 33.4093 9.36467 33.8018 10.5 33.8018C11.6353 33.8018 12.7358 33.4093 13.6148 32.6908C14.4939 31.9723 15.0975 30.972 15.3234 29.8594H26.6766C26.9025 30.972 27.5061 31.9723 28.3852 32.6908C29.2642 33.4093 30.3647 33.8018 31.5 33.8018C32.6353 33.8018 33.7358 33.4093 34.6148 32.6908C35.4939 31.9723 36.0975 30.972 36.3234 29.8594H39.375C39.9842 29.8594 40.5684 29.6174 40.9991 29.1866C41.4299 28.7559 41.6719 28.1717 41.6719 27.5625V21C41.6719 20.3908 41.4299 19.8066 40.9991 19.3759C40.5684 18.9451 39.9842 18.7031 39.375 18.7031ZM6.99235 12.9429C7.02226 12.8981 7.06275 12.8613 7.11025 12.8358C7.15775 12.8104 7.21079 12.797 7.26469 12.7969H25.707C25.7938 12.7972 25.877 12.8321 25.9383 12.8937L31.7494 18.7031H3.15164L6.99235 12.9429ZM10.5 31.8281C9.91593 31.8281 9.34497 31.6549 8.85933 31.3304C8.3737 31.0059 7.99519 30.5447 7.77167 30.0051C7.54816 29.4655 7.48967 28.8717 7.60362 28.2989C7.71757 27.726 7.99883 27.1998 8.41183 26.7868C8.82483 26.3738 9.35103 26.0926 9.92388 25.9786C10.4967 25.8647 11.0905 25.9232 11.6301 26.1467C12.1697 26.3702 12.6309 26.7487 12.9554 27.2343C13.2799 27.72 13.4531 28.2909 13.4531 28.875C13.4531 29.6582 13.142 30.4094 12.5882 30.9632C12.0344 31.517 11.2832 31.8281 10.5 31.8281ZM31.5 31.8281C30.9159 31.8281 30.345 31.6549 29.8593 31.3304C29.3737 31.0059 28.9952 30.5447 28.7717 30.0051C28.5482 29.4655 28.4897 28.8717 28.6036 28.2989C28.7176 27.726 28.9988 27.1998 29.4118 26.7868C29.8248 26.3738 30.351 26.0926 30.9239 25.9786C31.4967 25.8647 32.0905 25.9232 32.6301 26.1467C33.1697 26.3702 33.6309 26.7487 33.9554 27.2343C34.2799 27.72 34.4531 28.2909 34.4531 28.875C34.4531 29.6582 34.142 30.4094 33.5882 30.9632C33.0344 31.517 32.2832 31.8281 31.5 31.8281ZM39.7031 27.5625C39.7031 27.6495 39.6686 27.733 39.607 27.7945C39.5455 27.8561 39.462 27.8906 39.375 27.8906H36.3234C36.0975 26.778 35.4939 25.7777 34.6148 25.0592C33.7358 24.3407 32.6353 23.9482 31.5 23.9482C30.3647 23.9482 29.2642 24.3407 28.3852 25.0592C27.5061 25.7777 26.9025 26.778 26.6766 27.8906H15.3234C15.0975 26.778 14.4939 25.7777 13.6148 25.0592C12.7358 24.3407 11.6353 23.9482 10.5 23.9482C9.36467 23.9482 8.26424 24.3407 7.38519 25.0592C6.50613 25.7777 5.90249 26.778 5.67656 27.8906H2.625C2.53798 27.8906 2.45452 27.8561 2.39298 27.7945C2.33145 27.733 2.29688 27.6495 2.29688 27.5625V20.6719H39.375C39.462 20.6719 39.5455 20.7064 39.607 20.768C39.6686 20.8295 39.7031 20.913 39.7031 21V27.5625Z" fill="#45894D"/>
</svg>
