<svg width="25" height="25" viewBox="0 0 25 25" fill="none" xmlns="http://www.w3.org/2000/svg">
<g clip-path="url(#clip0_192_10)">
<path d="M11.5998 0.029688C11.5053 0.0396489 11.2102 0.0746098 10.9498 0.105274C9.9002 0.225 8.70996 0.540235 7.66543 0.980274C3.88516 2.55977 1.04004 6.0252 0.255078 10C0.0703125 10.9453 0.0253906 11.4098 0.0253906 12.5C0.0253906 13.9053 0.165039 14.875 0.535156 16.1004C1.74512 20.1102 4.89512 23.2551 8.91523 24.4697C10.1252 24.8352 11.1002 24.9748 12.5002 24.9748C13.9055 24.9748 14.8752 24.8352 16.1006 24.465C20.1104 23.2551 23.2553 20.1051 24.4699 16.085C24.8354 14.875 24.975 13.9 24.975 12.5C24.975 11.9049 24.9453 11.2252 24.9102 10.9748C24.5051 8.08496 23.3148 5.65488 21.3305 3.66973C19.3498 1.6998 16.9299 0.505079 14.0998 0.1C13.71 0.0449223 11.9049 -0.0054683 11.5998 0.029688ZM7.525 7.90469C7.79062 7.98477 7.91484 8.05977 8.09492 8.23965C8.44512 8.59512 8.52519 8.78984 8.52519 9.32461C8.52519 9.7252 8.50996 9.8 8.39023 10.0098C8.15977 10.3996 7.625 10.7598 7.25508 10.7695C6.99473 10.775 7.00547 10.6598 7.29023 10.36C7.67012 9.96484 7.725 9.81504 7.725 9.22461C7.72031 8.65488 7.6502 8.46016 7.38535 8.3C7.16504 8.16504 6.92539 8.175 6.5752 8.33965C5.66504 8.7752 4.68008 10.225 4.29551 11.7104C3.78516 13.6902 4.69004 15.2748 6.18008 15.0047C6.61484 14.9246 7.43496 14.5051 7.79062 14.1746C8.08516 13.9053 8.08516 13.9 8.11484 13.5652C8.18047 12.8646 8.6748 12.165 9.33555 11.84C9.63984 11.6896 9.71543 11.6752 10.1252 11.6752C10.515 11.6752 10.6051 11.6951 10.7951 11.7996C11.4 12.1453 11.275 12.95 10.6203 12.95C10.2404 12.95 10.0451 12.7547 10.3205 12.6504C10.5906 12.5504 10.4898 12.175 10.1756 12.0902C9.80547 11.9949 9.38516 12.2451 9.12031 12.725C8.8 13.3051 8.78535 13.9953 9.08984 14.3098C9.38516 14.6248 9.75508 14.3754 10.0404 13.6596C10.19 13.2949 10.4051 13.0996 10.6555 13.0996C10.8752 13.0996 10.9156 13.2348 10.8201 13.6451C10.6799 14.2799 10.7752 14.4447 11.1703 14.2502C11.3 14.1898 11.5152 14.0504 11.6449 13.9504L11.8898 13.7551L12.0555 12.8898C12.2355 11.9201 12.3049 11.7896 12.675 11.7203C13.0305 11.6547 13.1105 11.8301 12.9801 12.3848L12.9098 12.6953L13.1701 12.4297C13.785 11.7996 14.5402 11.4898 14.8004 11.75C14.94 11.8896 14.9248 12.065 14.725 12.6846C14.6303 12.9799 14.4998 13.4453 14.4404 13.71C14.3504 14.1098 14.3449 14.2051 14.3955 14.2701C14.5557 14.46 15.0453 14.2646 15.4803 13.8396L15.7352 13.5902L15.7656 13.0348C15.7953 12.3947 15.8549 12.165 16.025 11.9598C16.1852 11.7699 16.4752 11.6303 16.6301 11.6699C16.785 11.7104 16.785 11.86 16.6453 12.3002C16.45 12.9051 16.4705 14.2998 16.6705 14.2998C16.7506 14.2998 17.1602 13.8701 17.4205 13.5102L17.615 13.2445L17.4602 13.0852C17.19 12.8 17.1252 12.6152 17.1252 12.1498C17.1252 11.8104 17.1504 11.6852 17.235 11.5195C17.3754 11.2602 17.5951 11.0703 17.8553 10.9947C18.1299 10.91 18.4701 11.0496 18.6098 11.2998C18.7502 11.5547 18.7152 12.1246 18.535 12.5152L18.4053 12.7998H18.5801C18.8203 12.7998 18.915 12.7402 19.3453 12.3352C19.5703 12.1201 19.8305 11.9348 20.025 11.8447C20.7902 11.4854 21.6906 11.6699 21.84 12.2199C21.965 12.6602 21.6906 12.9699 21.21 12.9348C20.865 12.9098 20.8002 12.8195 21.0002 12.6504C21.3602 12.3496 21.0002 11.9652 20.4852 12.1049C20.2051 12.1803 19.89 12.4947 19.7254 12.8602C19.3949 13.5902 19.5703 14.45 20.0449 14.45C20.235 14.45 20.5705 14.0748 20.7002 13.71C20.8551 13.2896 21.1801 13.025 21.425 13.1201C21.5602 13.1699 21.5701 13.3049 21.4854 13.7299C21.39 14.1953 21.3754 14.6303 21.4502 14.8301C21.4801 14.9047 21.5701 15.0451 21.6555 15.1398C21.8148 15.3197 21.8203 15.3848 21.6852 15.4701C21.6203 15.515 21.5348 15.4953 21.3252 15.3803C21.0352 15.2299 20.785 14.9598 20.6949 14.7049L20.64 14.5553L20.44 14.7049C20.3248 14.785 20.1449 14.875 20.0402 14.9047C19.6252 15.0146 19.1148 14.7301 18.8754 14.2502C18.7799 14.0646 18.7502 13.5201 18.8203 13.3102C18.8602 13.1949 18.8602 13.1949 18.6998 13.275C18.6152 13.3201 18.4352 13.3697 18.2955 13.385C18.065 13.4104 18.0299 13.4354 17.8004 13.7252C17.4754 14.1295 16.9 14.6752 16.665 14.7904C16.1654 15.0398 16.0006 14.9697 15.8701 14.4545L15.7801 14.1098L15.5648 14.2998C15.2902 14.54 14.7402 14.8301 14.425 14.9002C14.1252 14.965 13.8049 14.8697 13.675 14.6697C13.4807 14.3699 13.5455 13.7352 13.8551 12.8799C14.0848 12.2451 13.9201 12.2354 13.3402 12.8402C12.91 13.2949 12.7252 13.6199 12.6055 14.125C12.4805 14.65 12.3301 14.8398 11.9906 14.9199C11.7854 14.965 11.6898 14.8398 11.7305 14.5652L11.7602 14.3447L11.5701 14.4752C11.3 14.66 10.9598 14.8301 10.7248 14.8949C10.4898 14.9598 10.1801 14.8902 10.1053 14.7598C9.97031 14.5303 9.97031 14.5303 9.76055 14.6949C9.30508 15.065 8.65508 14.9598 8.32539 14.4699L8.21992 14.315L7.89043 14.6201C6.93984 15.49 5.75039 15.8799 4.87012 15.6098C3.75 15.2703 3.13047 14.3098 3.14043 12.925C3.14512 11.535 3.75996 10.0701 4.79531 8.98516C5.38047 8.37481 5.93047 8.01465 6.49062 7.87969C6.89492 7.77969 7.14062 7.78477 7.525 7.90469Z" fill="#00C4CC"/>
<path d="M17.6607 11.4602C17.5508 11.5699 17.5912 12.0102 17.731 12.2902C17.8011 12.4352 17.8759 12.5504 17.9009 12.5504C17.9209 12.5504 17.9658 12.4352 18.0009 12.2947C18.1259 11.7752 17.9009 11.2197 17.6607 11.4602Z" fill="#00C4CC"/>
</g>
<defs>
<clipPath id="clip0_192_10">
<rect width="25" height="25" fill="white"/>
</clipPath>
</defs>
</svg>
