<svg width="17" height="18" viewBox="0 0 17 18" fill="none" xmlns="http://www.w3.org/2000/svg">
<path fill-rule="evenodd" clip-rule="evenodd" d="M10.625 6.31008e-08H7.245C5.71333 6.31008e-08 4.5 6.20882e-08 3.55083 0.1275C2.57417 0.259167 1.78333 0.535833 1.15917 1.15917C0.535833 1.78333 0.259167 2.57417 0.1275 3.55083C1.61429e-07 4.50083 6.31008e-08 5.71333 6.31008e-08 7.245V12.2917C-0.000149492 13.0362 0.26555 13.7564 0.749248 14.3224C1.23295 14.8885 1.90286 15.2632 2.63833 15.3792C2.7525 16.0158 2.97333 16.5592 3.415 17.0017C3.91667 17.5033 4.54833 17.7183 5.29833 17.82C6.02083 17.9167 6.94 17.9167 8.07917 17.9167H10.6708C11.81 17.9167 12.7292 17.9167 13.4517 17.82C14.2017 17.7183 14.8333 17.5033 15.335 17.0017C15.8367 16.5 16.0517 15.8683 16.1533 15.1183C16.25 14.3958 16.25 13.4767 16.25 12.3375V8.07917C16.25 6.94 16.25 6.02083 16.1533 5.29833C16.0517 4.54833 15.8367 3.91667 15.335 3.415C14.8925 2.97333 14.3492 2.7525 13.7125 2.63833C13.5965 1.90286 13.2218 1.23295 12.6558 0.749248C12.0897 0.26555 11.3696 -0.000149492 10.625 6.31008e-08ZM12.4 2.5175C12.2733 2.1475 12.034 1.82638 11.7158 1.5991C11.3975 1.37183 11.0161 1.24976 10.625 1.25H7.29167C5.7025 1.25 4.57417 1.25167 3.71667 1.36667C2.87917 1.47917 2.39583 1.69083 2.04333 2.04333C1.69083 2.39583 1.47917 2.87917 1.36667 3.71667C1.25167 4.57417 1.25 5.7025 1.25 7.29167V12.2917C1.24976 12.6828 1.37183 13.0641 1.5991 13.3824C1.82638 13.7007 2.1475 13.9399 2.5175 14.0667C2.5 13.5583 2.5 12.9833 2.5 12.3375V8.07917C2.5 6.94 2.5 6.02083 2.5975 5.29833C2.6975 4.54833 2.91417 3.91667 3.415 3.415C3.91667 2.91333 4.54833 2.69833 5.29833 2.5975C6.02083 2.5 6.94 2.5 8.07917 2.5H10.6708C11.3167 2.5 11.8917 2.5 12.4 2.5175ZM4.29833 4.3C4.52917 4.06917 4.8525 3.91917 5.465 3.83667C6.09333 3.7525 6.92833 3.75083 8.12417 3.75083H10.6242C11.82 3.75083 12.6542 3.7525 13.2842 3.83667C13.8958 3.91917 14.2192 4.07 14.45 4.3C14.6808 4.53083 14.8308 4.85417 14.9133 5.46667C14.9975 6.095 14.9992 6.93 14.9992 8.12583V12.2925C14.9992 13.4883 14.9975 14.3225 14.9133 14.9525C14.8308 15.5642 14.68 15.8875 14.45 16.1183C14.2192 16.3492 13.8958 16.4992 13.2833 16.5817C12.6542 16.6658 11.82 16.6675 10.6242 16.6675H8.12417C6.92833 16.6675 6.09333 16.6658 5.46417 16.5817C4.8525 16.4992 4.52917 16.3483 4.29833 16.1183C4.0675 15.8875 3.9175 15.5642 3.835 14.9517C3.75083 14.3225 3.74917 13.4883 3.74917 12.2925V8.12583C3.74917 6.93 3.75083 6.095 3.835 5.46583C3.9175 4.85417 4.06833 4.53083 4.29833 4.3Z" fill="black"/>
</svg>
