<svg width="20" height="20" viewBox="0 0 20 20" fill="none" xmlns="http://www.w3.org/2000/svg">
<path d="M7.00065 10.6667C7.30465 10.6667 7.56865 10.6667 7.80065 10.7227C8.15947 10.8083 8.48762 10.9915 8.74881 11.2519C9.01001 11.5124 9.19407 11.8401 9.28065 12.1987C9.33398 12.432 9.33398 12.696 9.33398 13V16.3333C9.33398 16.6373 9.33398 16.9013 9.27932 17.1333C9.1935 17.4925 9.00992 17.8209 8.74893 18.0821C8.48794 18.3433 8.15973 18.5272 7.80065 18.6133C7.56865 18.6667 7.30465 18.6667 7.00065 18.6667H3.66732C3.36332 18.6667 3.09932 18.6667 2.86732 18.612C2.50882 18.5259 2.18112 18.3423 1.92041 18.0816C1.6597 17.8209 1.47613 17.4932 1.38998 17.1347C1.33398 16.9013 1.33398 16.6373 1.33398 16.3333V13C1.33398 12.696 1.33398 12.432 1.38998 12.2C1.47603 11.8417 1.65939 11.5141 1.91985 11.2534C2.18031 10.9927 2.50774 10.809 2.86598 10.7227C3.09932 10.6667 3.36332 10.6667 3.66732 10.6667H7.00065ZM16.334 10.6667C16.638 10.6667 16.902 10.6667 17.134 10.7227C17.4926 10.8085 17.8204 10.9918 18.0814 11.2522C18.3423 11.5127 18.5262 11.8403 18.6127 12.1987C18.6687 12.432 18.6673 12.696 18.6673 13V16.3333C18.6673 16.6373 18.6673 16.9013 18.6127 17.1333C18.5267 17.4921 18.3432 17.8201 18.0825 18.081C17.8218 18.342 17.494 18.5257 17.1353 18.612C16.902 18.668 16.638 18.6667 16.334 18.6667H13.0007C12.6967 18.6667 12.4327 18.6667 12.2007 18.612C11.8422 18.5259 11.5145 18.3423 11.2537 18.0816C10.993 17.8209 10.8095 17.4932 10.7233 17.1347C10.6673 16.9013 10.6673 16.6373 10.6673 16.3333V13C10.6673 12.696 10.6673 12.432 10.7233 12.2C10.8094 11.8417 10.9927 11.5141 11.2532 11.2534C11.5136 10.9927 11.8411 10.809 12.1993 10.7227C12.4327 10.6667 12.6967 10.6667 13.0007 10.6667H16.334ZM3.73398 12C3.32465 12 3.23665 12.004 3.17932 12.0187C3.05954 12.0473 2.95005 12.1086 2.86296 12.1956C2.77588 12.2827 2.71463 12.3922 2.68598 12.512C2.67265 12.5693 2.66732 12.6587 2.66732 13.0667V16.2667C2.66732 16.6773 2.67132 16.7653 2.68598 16.8227C2.71463 16.9424 2.77588 17.0519 2.86296 17.139C2.95005 17.2261 3.05954 17.2874 3.17932 17.316C3.23665 17.3293 3.32598 17.3333 3.73398 17.3333H6.93398C7.34465 17.3333 7.43265 17.3293 7.48998 17.3147C7.60959 17.2861 7.71897 17.2251 7.80604 17.1382C7.8931 17.0514 7.95446 16.9422 7.98332 16.8227C7.99665 16.7653 8.00065 16.676 8.00065 16.2667V13.0667C8.00065 12.6573 7.99665 12.5693 7.98198 12.512C7.95345 12.3924 7.89239 12.283 7.80556 12.1959C7.71873 12.1089 7.60951 12.0475 7.48998 12.0187C7.43265 12.0053 7.34332 12 6.93398 12H3.73398ZM13.0673 12C12.658 12 12.57 12.004 12.5127 12.0187C12.3929 12.0473 12.2834 12.1086 12.1963 12.1956C12.1092 12.2827 12.048 12.3922 12.0193 12.512C12.006 12.5693 12.0007 12.6587 12.0007 13.0667V16.2667C12.0007 16.6773 12.0047 16.7653 12.0193 16.8227C12.048 16.9424 12.1092 17.0519 12.1963 17.139C12.2834 17.2261 12.3929 17.2874 12.5127 17.316C12.57 17.3293 12.6593 17.3333 13.0673 17.3333H16.2673C16.678 17.3333 16.766 17.3293 16.8233 17.3147C16.9429 17.2861 17.0523 17.2251 17.1394 17.1382C17.2264 17.0514 17.2878 16.9422 17.3167 16.8227C17.33 16.7653 17.334 16.676 17.334 16.2667V13.0667C17.334 12.6573 17.3287 12.5693 17.3153 12.512C17.2868 12.3924 17.2257 12.283 17.1389 12.1959C17.0521 12.1089 16.9428 12.0475 16.8233 12.0187C16.766 12.0053 16.6767 12 16.2673 12H13.0673ZM7.00065 1.33334C7.30465 1.33334 7.56865 1.33334 7.80065 1.38934C8.15947 1.47494 8.48762 1.65812 8.74881 1.91861C9.01001 2.1791 9.19407 2.50675 9.28065 2.86534C9.33398 3.09867 9.33398 3.36267 9.33398 3.66667V7C9.33398 7.304 9.33398 7.568 9.27932 7.8C9.1935 8.15915 9.00992 8.48754 8.74893 8.74876C8.48794 9.00999 8.15973 9.19386 7.80065 9.28C7.56865 9.33334 7.30465 9.33334 7.00065 9.33334H3.66732C3.36332 9.33334 3.09932 9.33334 2.86732 9.27867C2.50841 9.19263 2.18031 9.00896 1.91934 8.74798C1.65836 8.48701 1.47469 8.15891 1.38865 7.8C1.33398 7.568 1.33398 7.304 1.33398 7V3.66667C1.33398 3.36267 1.33398 3.09867 1.38998 2.86667C1.47603 2.50834 1.65939 2.18076 1.91985 1.92006C2.18031 1.65937 2.50774 1.4757 2.86598 1.38934C3.09932 1.33334 3.36332 1.33334 3.66732 1.33334H7.00065ZM16.334 1.33334C16.638 1.33334 16.902 1.33334 17.134 1.38934C17.4926 1.47516 17.8204 1.65843 18.0814 1.91891C18.3423 2.17938 18.5262 2.50692 18.6127 2.86534C18.6687 3.09867 18.6673 3.36267 18.6673 3.66667V7C18.6673 7.304 18.6673 7.568 18.6127 7.8C18.5268 8.15915 18.3433 8.48754 18.0823 8.74876C17.8213 9.00999 17.4931 9.19386 17.134 9.28C16.902 9.33334 16.638 9.33334 16.334 9.33334H13.0007C12.6967 9.33334 12.4327 9.33334 12.2007 9.27867C11.8417 9.19263 11.5136 9.00896 11.2527 8.74798C10.9917 8.48701 10.808 8.15891 10.722 7.8C10.6673 7.568 10.6673 7.304 10.6673 7V3.66667C10.6673 3.36267 10.6673 3.09867 10.7233 2.86667C10.8094 2.50834 10.9927 2.18076 11.2532 1.92006C11.5136 1.65937 11.8411 1.4757 12.1993 1.38934C12.4327 1.33334 12.6967 1.33334 13.0007 1.33334H16.334ZM3.73398 2.66667C3.32465 2.66667 3.23665 2.67067 3.17932 2.68534C3.05954 2.71398 2.95005 2.77524 2.86296 2.86232C2.77588 2.9494 2.71463 3.0589 2.68598 3.17867C2.67265 3.236 2.66732 3.32534 2.66732 3.73334V6.93334C2.66732 7.344 2.67132 7.432 2.68598 7.48934C2.71463 7.60911 2.77588 7.71861 2.86296 7.80569C2.95005 7.89277 3.05954 7.95403 3.17932 7.98267C3.23665 7.996 3.32598 8 3.73398 8H6.93398C7.34465 8 7.43265 7.996 7.48998 7.98134C7.60959 7.9528 7.71897 7.89174 7.80604 7.80491C7.8931 7.71808 7.95446 7.60886 7.98332 7.48934C7.99665 7.432 8.00065 7.34267 8.00065 6.93334V3.73334C8.00065 3.324 7.99665 3.236 7.98198 3.17867C7.95345 3.05906 7.89239 2.94968 7.80556 2.86261C7.71873 2.77555 7.60951 2.7142 7.48998 2.68534C7.43265 2.672 7.34332 2.66667 6.93398 2.66667H3.73398ZM13.0673 2.66667C12.658 2.66667 12.57 2.67067 12.5127 2.68534C12.3929 2.71398 12.2834 2.77524 12.1963 2.86232C12.1092 2.9494 12.048 3.0589 12.0193 3.17867C12.006 3.236 12.0007 3.32534 12.0007 3.73334V6.93334C12.0007 7.344 12.0047 7.432 12.0193 7.48934C12.048 7.60911 12.1092 7.71861 12.1963 7.80569C12.2834 7.89277 12.3929 7.95403 12.5127 7.98267C12.57 7.996 12.6593 8 13.0673 8H16.2673C16.678 8 16.766 7.996 16.8233 7.98134C16.9429 7.9528 17.0523 7.89174 17.1394 7.80491C17.2264 7.71808 17.2878 7.60886 17.3167 7.48934C17.33 7.432 17.334 7.34267 17.334 6.93334V3.73334C17.334 3.324 17.3287 3.236 17.3153 3.17867C17.2868 3.05906 17.2257 2.94968 17.1389 2.86261C17.0521 2.77555 16.9428 2.7142 16.8233 2.68534C16.766 2.672 16.6767 2.66667 16.2673 2.66667H13.0673Z" fill="white"/>
</svg>
