<svg width="20" height="20" viewBox="0 0 20 20" fill="none" xmlns="http://www.w3.org/2000/svg">
<path fill-rule="evenodd" clip-rule="evenodd" d="M5.83317 18.3334C4.7281 18.3334 3.66829 17.8944 2.88689 17.113C2.10549 16.3316 1.6665 15.2718 1.6665 14.1667V11.6667C1.6665 11.4457 1.7543 11.2337 1.91058 11.0775C2.06686 10.9212 2.27882 10.8334 2.49984 10.8334C2.72085 10.8334 2.93281 10.9212 3.08909 11.0775C3.24537 11.2337 3.33317 11.4457 3.33317 11.6667V14.1667C3.33317 14.8297 3.59656 15.4656 4.0654 15.9345C4.53424 16.4033 5.17013 16.6667 5.83317 16.6667H14.1665C14.8295 16.6667 15.4654 16.4033 15.9343 15.9345C16.4031 15.4656 16.6665 14.8297 16.6665 14.1667V11.6667C16.6665 11.4457 16.7543 11.2337 16.9106 11.0775C17.0669 10.9212 17.2788 10.8334 17.4998 10.8334C17.7208 10.8334 17.9328 10.9212 18.0891 11.0775C18.2454 11.2337 18.3332 11.4457 18.3332 11.6667V14.1667C18.3332 15.2718 17.8942 16.3316 17.1128 17.113C16.3314 17.8944 15.2716 18.3334 14.1665 18.3334H5.83317Z" fill="#3C3C3C"/>
<path fill-rule="evenodd" clip-rule="evenodd" d="M14.7622 9.08337C14.8388 9.16164 14.8993 9.25424 14.9401 9.35588C14.9809 9.45752 15.0012 9.56621 15 9.67572C14.9987 9.78524 14.9759 9.89343 14.9328 9.99412C14.8898 10.0948 14.8273 10.186 14.7489 10.2625L10.9989 13.9292C10.8432 14.0814 10.6341 14.1666 10.4164 14.1666C10.1987 14.1666 9.98959 14.0814 9.83389 13.9292L6.08389 10.2625C6.00396 10.1864 5.93995 10.0952 5.89557 9.99418C5.85118 9.89314 5.82731 9.78429 5.82533 9.67395C5.82335 9.56361 5.84331 9.45397 5.88405 9.3514C5.92479 9.24884 5.9855 9.15539 6.06264 9.07647C6.13979 8.99756 6.23185 8.93475 6.33346 8.89171C6.43508 8.84866 6.54424 8.82622 6.6546 8.8257C6.76495 8.82518 6.87432 8.84658 6.97634 8.88867C7.07836 8.93076 7.171 8.99269 7.24889 9.07087L9.58306 11.3534V4.16671C9.58306 3.94569 9.67085 3.73373 9.82713 3.57745C9.98341 3.42117 10.1954 3.33337 10.4164 3.33337C10.6374 3.33337 10.8494 3.42117 11.0056 3.57745C11.1619 3.73373 11.2497 3.94569 11.2497 4.16671V11.3534L13.5831 9.07087C13.6613 8.99426 13.7539 8.93383 13.8556 8.89303C13.9572 8.85224 14.0659 8.83187 14.1754 8.83311C14.2849 8.83435 14.3931 8.85716 14.4938 8.90025C14.5945 8.94333 14.6857 9.00585 14.7622 9.08421V9.08337Z" fill="#3C3C3C"/>
</svg>
