<svg width="20" height="20" viewBox="0 0 20 20" fill="none" xmlns="http://www.w3.org/2000/svg">
<path d="M1.66602 10C1.66602 8.84722 1.8849 7.76389 2.32268 6.75C2.76046 5.73611 3.35407 4.85417 4.10352 4.10417C4.85296 3.35417 5.7349 2.76055 6.74935 2.32333C7.76379 1.88611 8.84713 1.66722 9.99935 1.66667C11.7632 1.66667 13.3363 2.15278 14.7185 3.125C16.1007 4.09722 17.1041 5.35417 17.7285 6.89583C17.8257 7.13194 17.8293 7.36805 17.7393 7.60417C17.6493 7.84028 17.486 8 17.2493 8.08333C17.0271 8.15278 16.8155 8.13194 16.6143 8.02083C16.4132 7.90972 16.2707 7.74305 16.1868 7.52083C15.8535 6.6875 15.3743 5.95139 14.7493 5.3125C14.1243 4.67361 13.3743 4.18055 12.4993 3.83333V4.16667C12.4993 4.625 12.3363 5.0175 12.0102 5.34417C11.6841 5.67083 11.2916 5.83389 10.8327 5.83333H9.16601V7.5C9.16601 7.73611 9.08601 7.93417 8.92601 8.09417C8.76601 8.25417 8.56824 8.33389 8.33268 8.33333H6.66602V10H7.49935C7.73546 10 7.93352 10.08 8.09352 10.24C8.25352 10.4 8.33324 10.5978 8.33268 10.8333V12.5H7.49935L3.49935 8.5C3.45768 8.75 3.41963 9 3.38518 9.25C3.35074 9.5 3.33324 9.75 3.33268 10C3.33268 11.6944 3.89185 13.1736 5.01018 14.4375C6.12852 15.7014 7.53463 16.4306 9.22851 16.625C9.45074 16.6528 9.6349 16.7467 9.78101 16.9067C9.92713 17.0667 9.9999 17.2644 9.99935 17.5C9.99879 17.7356 9.91879 17.9336 9.75935 18.0942C9.5999 18.2547 9.40907 18.3206 9.18685 18.2917C7.06185 18.0833 5.27713 17.1944 3.83268 15.625C2.38824 14.0556 1.66602 12.1806 1.66602 10ZM16.9993 17.3333L14.916 15.25C14.6243 15.4167 14.3118 15.5556 13.9785 15.6667C13.6452 15.7778 13.291 15.8333 12.916 15.8333C11.8743 15.8333 10.9891 15.4689 10.2602 14.74C9.53129 14.0111 9.16657 13.1256 9.16601 12.0833C9.16546 11.0411 9.53018 10.1558 10.2602 9.4275C10.9902 8.69917 11.8755 8.33444 12.916 8.33333C13.9566 8.33222 14.8421 8.69694 15.5727 9.4275C16.3032 10.1581 16.6677 11.0433 16.666 12.0833C16.666 12.4583 16.6105 12.8125 16.4993 13.1458C16.3882 13.4792 16.2493 13.7917 16.0827 14.0833L18.166 16.1667C18.3188 16.3194 18.3952 16.5139 18.3952 16.75C18.3952 16.9861 18.3188 17.1806 18.166 17.3333C18.0132 17.4861 17.8188 17.5625 17.5827 17.5625C17.3466 17.5625 17.1521 17.4861 16.9993 17.3333ZM12.916 14.1667C13.4993 14.1667 13.9924 13.9653 14.3952 13.5625C14.798 13.1597 14.9993 12.6667 14.9993 12.0833C14.9993 11.5 14.798 11.0069 14.3952 10.6042C13.9924 10.2014 13.4993 10 12.916 10C12.3327 10 11.8396 10.2014 11.4368 10.6042C11.0341 11.0069 10.8327 11.5 10.8327 12.0833C10.8327 12.6667 11.0341 13.1597 11.4368 13.5625C11.8396 13.9653 12.3327 14.1667 12.916 14.1667Z" fill="black"/>
</svg>
