<svg width="42" height="42" viewBox="0 0 42 42" fill="none" xmlns="http://www.w3.org/2000/svg">
<g clip-path="url(#clip0_76_1794)">
<path d="M41.7316 9.51994C41.6423 8.95216 41.3824 8.42495 40.9865 8.00824C40.5906 7.59152 40.0774 7.30498 39.515 7.18661L32.6666 5.68161C31.9322 5.52144 31.172 5.52084 30.4374 5.67985C29.7027 5.83885 29.0108 6.15376 28.4083 6.60328L8.16665 21.3499L2.49665 21.1166C2.04085 21.1003 1.5915 21.228 1.21242 21.4816C0.833333 21.7352 0.543795 22.1018 0.384926 22.5294C0.226056 22.9569 0.205932 23.4236 0.327414 23.8632C0.448895 24.3028 0.705803 24.693 1.06165 24.9783L6.89498 29.5633C7.59498 30.4149 8.06165 30.2516 19.6467 23.9399L20.7316 34.9299C20.7497 35.2297 20.8525 35.5183 21.028 35.762C21.2036 36.0057 21.4447 36.1945 21.7233 36.3066C21.9236 36.3867 22.1377 36.4264 22.3533 36.4233C22.7872 36.41 23.2017 36.2401 23.52 35.9449L26.3083 33.4016C26.586 33.1444 26.774 32.8051 26.845 32.4333L29.4 18.5499C33.565 16.2166 37.5083 14.0233 40.32 12.4249C40.823 12.142 41.2277 11.7122 41.48 11.1931C41.7322 10.674 41.82 10.0903 41.7316 9.51994ZM39.165 10.3949C36.2483 12.0516 32.165 14.3733 27.7783 16.7766L27.3 17.0449L24.5816 31.8266L22.8666 33.3899L21.5833 20.2066L20.0316 20.9999C11.6666 25.6666 8.87832 27.0199 7.92165 27.4399L2.90498 23.4616L8.83165 23.7183L29.8316 8.48161C30.1614 8.23417 30.5398 8.05944 30.942 7.96895C31.3442 7.87845 31.761 7.87425 32.165 7.95661L38.99 9.42661C39.0951 9.44568 39.1915 9.49784 39.2649 9.57548C39.3384 9.65313 39.3851 9.75221 39.3983 9.85828C39.4223 9.96093 39.4126 10.0686 39.3706 10.1653C39.3285 10.2619 39.2564 10.3425 39.165 10.3949Z" fill="#45894D"/>
<path d="M8.16653 14.6301L12.3199 15.7967L14.2332 14.4084L9.56653 13.0551L11.6665 11.7717L18.0482 11.5851L20.7315 9.63672L11.6665 9.91672C11.3807 9.90126 11.0967 9.97024 10.8499 10.1151L7.78153 11.9001C7.52786 12.0503 7.32435 12.2723 7.19665 12.5381C7.06895 12.8038 7.02278 13.1014 7.06395 13.3934C7.10512 13.6853 7.2318 13.9586 7.42801 14.1787C7.62422 14.3987 7.88119 14.5558 8.16653 14.6301Z" fill="#45894D"/>
</g>
<defs>
<clipPath id="clip0_76_1794">
<rect width="42" height="42" fill="white"/>
</clipPath>
</defs>
</svg>
