<svg width="20" height="20" viewBox="0 0 20 20" fill="none" xmlns="http://www.w3.org/2000/svg">
<path d="M8.75 8.95833C8.75 9.20456 8.7015 9.44838 8.60727 9.67587C8.51305 9.90335 8.37493 10.11 8.20082 10.2842C8.02672 10.4583 7.82002 10.5964 7.59253 10.6906C7.36505 10.7848 7.12123 10.8333 6.875 10.8333C6.62877 10.8333 6.38495 10.7848 6.15747 10.6906C5.92998 10.5964 5.72328 10.4583 5.54917 10.2842C5.37507 10.11 5.23695 9.90335 5.14273 9.67587C5.0485 9.44838 5 9.20456 5 8.95833C5 8.46105 5.19754 7.98414 5.54917 7.63251C5.90081 7.28088 6.37772 7.08333 6.875 7.08333C7.37228 7.08333 7.84919 7.28088 8.20082 7.63251C8.55246 7.98414 8.75 8.46105 8.75 8.95833ZM7.70833 8.95833C7.70833 8.73732 7.62054 8.52536 7.46426 8.36908C7.30798 8.2128 7.09601 8.125 6.875 8.125C6.65399 8.125 6.44202 8.2128 6.28574 8.36908C6.12946 8.52536 6.04167 8.73732 6.04167 8.95833C6.04167 9.17935 6.12946 9.39131 6.28574 9.54759C6.44202 9.70387 6.65399 9.79167 6.875 9.79167C7.09601 9.79167 7.30798 9.70387 7.46426 9.54759C7.62054 9.39131 7.70833 9.17935 7.70833 8.95833ZM6.875 15.4167C7.37228 15.4167 7.84919 15.2191 8.20082 14.8675C8.55246 14.5159 8.75 14.0389 8.75 13.5417C8.75 13.0444 8.55246 12.5675 8.20082 12.2158C7.84919 11.8642 7.37228 11.6667 6.875 11.6667C6.37772 11.6667 5.90081 11.8642 5.54917 12.2158C5.19754 12.5675 5 13.0444 5 13.5417C5 14.0389 5.19754 14.5159 5.54917 14.8675C5.90081 15.2191 6.37772 15.4167 6.875 15.4167ZM6.875 14.375C6.65399 14.375 6.44202 14.2872 6.28574 14.1309C6.12946 13.9746 6.04167 13.7627 6.04167 13.5417C6.04167 13.3207 6.12946 13.1087 6.28574 12.9524C6.44202 12.7961 6.65399 12.7083 6.875 12.7083C7.09601 12.7083 7.30798 12.7961 7.46426 12.9524C7.62054 13.1087 7.70833 13.3207 7.70833 13.5417C7.70833 13.7627 7.62054 13.9746 7.46426 14.1309C7.30798 14.2872 7.09601 14.375 6.875 14.375ZM5.52083 5C5.3827 5 5.25022 5.05487 5.15255 5.15255C5.05487 5.25022 5 5.3827 5 5.52083C5 5.65897 5.05487 5.79144 5.15255 5.88912C5.25022 5.98679 5.3827 6.04167 5.52083 6.04167H14.4792C14.6173 6.04167 14.7498 5.98679 14.8475 5.88912C14.9451 5.79144 15 5.65897 15 5.52083C15 5.3827 14.9451 5.25022 14.8475 5.15255C14.7498 5.05487 14.6173 5 14.4792 5H5.52083ZM9.58333 9.0625C9.58333 8.775 9.81667 8.54167 10.1042 8.54167H14.4792C14.6173 8.54167 14.7498 8.59654 14.8475 8.69421C14.9451 8.79189 15 8.92437 15 9.0625C15 9.20063 14.9451 9.33311 14.8475 9.43079C14.7498 9.52846 14.6173 9.58333 14.4792 9.58333H10.1042C9.81667 9.58333 9.58333 9.35 9.58333 9.0625ZM10.1042 12.9167C9.96603 12.9167 9.83356 12.9715 9.73588 13.0692C9.63821 13.1669 9.58333 13.2994 9.58333 13.4375C9.58333 13.5756 9.63821 13.7081 9.73588 13.8058C9.83356 13.9035 9.96603 13.9583 10.1042 13.9583H14.4792C14.6173 13.9583 14.7498 13.9035 14.8475 13.8058C14.9451 13.7081 15 13.5756 15 13.4375C15 13.2994 14.9451 13.1669 14.8475 13.0692C14.7498 12.9715 14.6173 12.9167 14.4792 12.9167H10.1042ZM5.10417 2.5C4.4135 2.5 3.75112 2.77437 3.26274 3.26274C2.77437 3.75112 2.5 4.4135 2.5 5.10417V14.8958C2.5 15.5865 2.77437 16.2489 3.26274 16.7373C3.75112 17.2256 4.4135 17.5 5.10417 17.5H14.8958C15.5865 17.5 16.2489 17.2256 16.7373 16.7373C17.2256 16.2489 17.5 15.5865 17.5 14.8958V5.10417C17.5 4.4135 17.2256 3.75112 16.7373 3.26274C16.2489 2.77437 15.5865 2.5 14.8958 2.5H5.10417ZM3.54167 5.10417C3.54167 4.68977 3.70629 4.29234 3.99931 3.99931C4.29234 3.70629 4.68977 3.54167 5.10417 3.54167H14.8958C15.3102 3.54167 15.7077 3.70629 16.0007 3.99931C16.2937 4.29234 16.4583 4.68977 16.4583 5.10417V14.8958C16.4583 15.3102 16.2937 15.7077 16.0007 16.0007C15.7077 16.2937 15.3102 16.4583 14.8958 16.4583H5.10417C4.68977 16.4583 4.29234 16.2937 3.99931 16.0007C3.70629 15.7077 3.54167 15.3102 3.54167 14.8958V5.10417Z" fill="white"/>
</svg>
