<svg width="25" height="22" viewBox="0 0 25 22" fill="none" xmlns="http://www.w3.org/2000/svg">
<g clip-path="url(#clip0_192_6)">
<path d="M0.578937 15.917L8.87553 1.99913C9.9294 2.6071 15.2436 5.4889 16.1019 6.03699L7.80527 19.9556C6.89793 21.1302 -0.570592 17.6995 0.578937 15.9162V15.917Z" fill="#FBBC04"/>
<path d="M24.4176 15.9167L16.121 1.9997C14.9612 0.108278 12.4632 -0.579078 10.4114 0.538043C8.35956 1.65517 7.73482 4.06158 8.8947 6.03747L17.1913 19.9562C18.3512 21.8468 20.8493 22.534 22.9011 21.417C24.8631 20.2998 25.5775 17.808 24.4176 15.9183V15.9167Z" fill="#4285F4"/>
<path d="M4.17056 21.9549C6.47066 21.9549 8.33526 20.1732 8.33526 17.9753C8.33526 15.7775 6.47066 13.9958 4.17056 13.9958C1.87046 13.9958 0.00585938 15.7775 0.00585938 17.9753C0.00585938 20.1732 1.87046 21.9549 4.17056 21.9549Z" fill="#34A853"/>
</g>
<defs>
<clipPath id="clip0_192_6">
<rect width="25" height="22" fill="white"/>
</clipPath>
</defs>
</svg>
