<svg width="42" height="42" viewBox="0 0 42 42" fill="none" xmlns="http://www.w3.org/2000/svg">
<path d="M21.5123 6.3252C21.3553 6.32492 21.2002 6.35986 21.0584 6.42746C20.9167 6.49506 20.7919 6.59359 20.6933 6.7158L20.5064 6.8544C16.8839 5.733 12.7511 6.5562 9.8741 9.3282C8.66899 10.4712 7.7725 11.9004 7.26802 13.4828C6.76355 15.0653 6.66746 16.7496 6.9887 18.3792L6.8837 18.4758L5.2478 20.0508C4.93135 20.351 4.67934 20.7125 4.50712 21.1132C4.33491 21.514 4.24609 21.9456 4.24609 22.3818C4.24609 22.818 4.33491 23.2496 4.50712 23.6504C4.67934 24.0511 4.93135 24.4126 5.2478 24.7128C6.0836 25.5192 7.2428 25.8216 8.3201 25.62C8.4524 26.2269 8.7611 26.8044 9.2504 27.2748C9.8951 27.8964 10.733 28.2177 11.5772 28.2408C11.6003 29.0535 11.9342 29.8599 12.5789 30.4815C13.2236 31.1031 14.0636 31.4265 14.9078 31.4475C14.9288 32.2602 15.2648 33.0687 15.9095 33.6903C16.5267 34.276 17.3352 34.6183 18.1854 34.6539C19.0355 34.6894 19.8698 34.4157 20.5337 33.8835L21.4514 34.7655C22.7954 36.0612 24.9752 36.0612 26.3192 34.7655C26.9618 34.1481 27.2957 33.3459 27.3251 32.5353C28.1651 32.5101 28.9946 32.1888 29.6351 31.5714C30.2756 30.954 30.6116 30.1497 30.6368 29.3391C31.4901 29.3082 32.3023 28.9652 32.9195 28.3752C33.4298 27.8859 33.7448 27.279 33.8666 26.6448C34.4071 26.7394 34.9623 26.7059 35.4876 26.5468C36.0128 26.3878 36.4933 26.1078 36.8906 25.7292C37.2074 25.429 37.4597 25.0674 37.6321 24.6664C37.8045 24.2655 37.8934 23.8336 37.8934 23.3971C37.8934 22.9607 37.8045 22.5288 37.6321 22.1279C37.4597 21.7269 37.2074 21.3653 36.8906 21.0651L35.3786 19.6098L35.6873 18.4548C36.3095 16.0934 35.9934 13.5827 34.8053 11.4492C33.0497 8.2866 29.6435 6.3336 25.9601 6.3336H23.3771L23.0432 6.3252H21.5123ZM26.6636 14.1288L31.7141 18.9945L31.7204 18.9987L35.3765 22.5225C35.4953 22.6351 35.5899 22.7708 35.6545 22.9211C35.7191 23.0715 35.7525 23.2335 35.7525 23.3971C35.7525 23.5608 35.7191 23.7228 35.6545 23.8732C35.5899 24.0235 35.4953 24.1592 35.3765 24.2718C35.1309 24.5037 34.806 24.6328 34.4683 24.6328C34.1305 24.6328 33.8056 24.5037 33.56 24.2718L30.7859 21.6006C30.5826 21.4055 30.3117 21.2966 30.0299 21.2966C29.7481 21.2966 29.4772 21.4055 29.2739 21.6006L29.2445 21.6258C29.146 21.7199 29.0677 21.833 29.0141 21.9582C28.9606 22.0835 28.933 22.2183 28.933 22.3545C28.933 22.4907 28.9606 22.6255 29.0141 22.7507C29.0677 22.876 29.146 22.9891 29.2445 23.0832L31.4075 25.1664C31.9115 25.6494 31.9115 26.4348 31.4075 26.9199C31.1845 27.1313 30.8948 27.2584 30.5883 27.2794C30.2817 27.3005 29.9774 27.2142 29.7275 27.0354C29.519 26.8847 29.2642 26.8119 29.0076 26.8295C28.7509 26.8472 28.5086 26.9542 28.3226 27.132C28.1409 27.3058 28.0311 27.5415 28.0152 27.7924C27.9992 28.0434 28.0782 28.2911 28.2365 28.4865C28.425 28.7226 28.518 29.0209 28.497 29.3223C28.476 29.6238 28.3425 29.9063 28.1231 30.114C27.8969 30.3285 27.6022 30.4563 27.291 30.4747C26.9798 30.4932 26.6721 30.4011 26.4221 30.2148C26.2146 30.0592 25.9588 29.9818 25.6998 29.9964C25.4409 30.011 25.1954 30.1166 25.0067 30.2946C24.8226 30.4681 24.711 30.7048 24.6942 30.9573C24.6775 31.2097 24.7568 31.4591 24.9164 31.6554C25.1103 31.8943 25.2066 32.1977 25.1859 32.5047C25.1653 32.8116 25.0292 33.0994 24.8051 33.3102C24.5565 33.5461 24.2269 33.6776 23.8843 33.6776C23.5416 33.6776 23.212 33.5461 22.9634 33.3102L22.0541 32.4345L22.3859 32.1153C22.7027 31.8151 22.955 31.4535 23.1274 31.0525C23.2998 30.6516 23.3887 30.2197 23.3887 29.7832C23.3887 29.3468 23.2998 28.9149 23.1274 28.514C22.955 28.113 22.7027 27.7514 22.3859 27.4512C21.7578 26.8504 20.928 26.5059 20.0591 26.4852C20.0332 25.635 19.6733 24.8292 19.0574 24.2424C18.4285 23.6419 17.5979 23.2981 16.7285 23.2785C16.7026 22.4283 16.3427 21.6225 15.7268 21.0357C15.3234 20.6517 14.8343 20.3693 14.3 20.2119C13.7657 20.0545 13.2017 20.0267 12.6545 20.1306C12.5157 19.4988 12.1918 18.9227 11.7242 18.4758C11.3658 18.133 10.9384 17.8707 10.4705 17.7063C10.0026 17.5419 9.50504 17.4792 9.011 17.5224C8.8459 16.2918 8.9749 15.0397 9.38739 13.8686C9.79989 12.6976 10.4841 11.641 11.384 10.7856C12.2935 9.91647 13.3841 9.25938 14.5775 8.86146C15.7709 8.46353 17.0376 8.33463 18.2867 8.484L15.2312 10.731C14.8403 11.0151 14.5109 11.3754 14.2631 11.7903C14.0153 12.2052 13.8542 12.666 13.7894 13.1449C13.7246 13.6238 13.7576 14.1108 13.8863 14.5766C14.015 15.0424 14.2368 15.4773 14.5382 15.855C15.1481 16.619 16.029 17.1185 16.9977 17.2499C17.9664 17.3813 18.9485 17.1345 19.7399 16.5606L23.0495 14.1309L26.6636 14.1288ZM16.4744 12.4215L21.9176 8.4252H23.0432C23.1462 8.42421 23.2491 8.42701 23.3519 8.4336H25.9601C28.9085 8.4336 31.5986 9.9981 32.9699 12.4698C33.8981 14.1414 34.1417 16.0839 33.6566 17.9172L33.6503 17.9382L27.8543 12.3375C27.6579 12.1404 27.3912 12.0294 27.113 12.0288H22.703C22.4801 12.0292 22.2631 12.1006 22.0835 12.2325L18.4967 14.8659C18.1442 15.1177 17.7089 15.2255 17.2797 15.1674C16.8504 15.1092 16.4595 14.8895 16.1867 14.553C16.0597 14.3966 15.9661 14.2158 15.9116 14.0218C15.8571 13.8278 15.8429 13.6247 15.8698 13.4251C15.8968 13.2254 15.9643 13.0333 16.0683 12.8607C16.1723 12.6881 16.3105 12.5387 16.4744 12.4215ZM17.4026 30.5025L17.4236 30.4815L19.0574 28.9065L19.0763 28.8897C19.3232 28.6658 19.6455 28.5434 19.9788 28.5469C20.3121 28.5504 20.6317 28.6796 20.8739 28.9086C20.9927 29.0212 21.0873 29.1569 21.1519 29.3072C21.2165 29.4576 21.2499 29.6196 21.2499 29.7832C21.2499 29.9469 21.2165 30.1089 21.1519 30.2593C21.0873 30.4096 20.9927 30.5453 20.8739 30.6579L19.238 32.2329C18.9924 32.4648 18.6675 32.5939 18.3298 32.5939C17.992 32.5939 17.6671 32.4648 17.4215 32.2329C17.3043 32.1219 17.2106 31.9886 17.1459 31.8407C17.0812 31.6929 17.0468 31.5335 17.0449 31.3721C17.0429 31.2108 17.0734 31.0506 17.1345 30.9012C17.1956 30.7519 17.2881 30.6163 17.4026 30.5025ZM17.5622 27.4323L17.5412 27.4512L15.9074 29.0262L15.8864 29.0451C15.6393 29.2681 15.3173 29.3897 14.9845 29.3858C14.6518 29.3819 14.3327 29.2528 14.0909 29.0241C13.9735 28.9127 13.8797 28.7787 13.8151 28.6302C13.7506 28.4818 13.7166 28.3218 13.7153 28.1599C13.7139 27.998 13.7451 27.8375 13.8072 27.688C13.8692 27.5384 13.9607 27.4029 14.0762 27.2895L14.0909 27.2748L15.7247 25.6998L15.7394 25.6851C15.986 25.4595 16.3089 25.3356 16.6432 25.3383C16.9774 25.341 17.2983 25.4702 17.5412 25.6998C17.6587 25.8108 17.7527 25.9443 17.8176 26.0923C17.8825 26.2404 17.917 26.4 17.9189 26.5616C17.9209 26.7232 17.8903 26.8836 17.829 27.0332C17.7678 27.1828 17.677 27.3185 17.5622 27.4323ZM14.2127 24.2424L12.5768 25.8174L12.5621 25.8321C12.3155 26.0577 11.9926 26.1816 11.6583 26.1789C11.3241 26.1762 11.0032 26.047 10.7603 25.8174C10.6415 25.7048 10.547 25.5691 10.4823 25.4188C10.4177 25.2684 10.3843 25.1064 10.3843 24.9427C10.3843 24.7791 10.4177 24.6171 10.4823 24.4667C10.547 24.3164 10.6415 24.1807 10.7603 24.0681L12.3941 22.4931C12.6398 22.2606 12.9652 22.1311 13.3034 22.1311C13.6416 22.1311 13.967 22.2606 14.2127 22.4931C14.3305 22.6046 14.4245 22.7386 14.4893 22.8873C14.554 23.036 14.5881 23.1962 14.5894 23.3583C14.5908 23.5205 14.5595 23.6812 14.4972 23.831C14.435 23.9807 14.3433 24.1164 14.2274 24.2298L14.2127 24.2424ZM10.2101 21.6825L8.5763 23.2575C8.33062 23.49 8.00523 23.6195 7.667 23.6195C7.32877 23.6195 7.00338 23.49 6.7577 23.2575C6.63861 23.1448 6.54374 23.0091 6.47891 22.8585C6.41408 22.7079 6.38064 22.5457 6.38064 22.3818C6.38064 22.2179 6.41408 22.0557 6.47891 21.9051C6.54374 21.7545 6.63861 21.6188 6.7577 21.5061L8.3936 19.9311C8.63917 19.6992 8.96412 19.5701 9.30185 19.5701C9.63958 19.5701 9.96453 19.6992 10.2101 19.9311C10.3292 20.0438 10.4241 20.1795 10.4889 20.3301C10.5537 20.4807 10.5872 20.6429 10.5872 20.8068C10.5872 20.9707 10.5537 21.1329 10.4889 21.2835C10.4241 21.4341 10.3292 21.5698 10.2101 21.6825Z" fill="#45894D"/>
</svg>
