<svg width="57" height="57" viewBox="0 0 57 57" fill="none" xmlns="http://www.w3.org/2000/svg">
<path fill-rule="evenodd" clip-rule="evenodd" d="M37.602 32.9877C40.6612 32.9877 43.5951 34.2029 45.7583 36.3661C47.9215 38.5293 49.1368 41.4632 49.1368 44.5224V49.1363C49.1368 49.7482 48.8937 50.335 48.4611 50.7676C48.0284 51.2002 47.4416 51.4433 46.8298 51.4433C46.218 51.4433 45.6312 51.2002 45.1985 50.7676C44.7659 50.335 44.5228 49.7482 44.5228 49.1363V44.5224C44.5228 42.6869 43.7937 40.9265 42.4958 39.6286C41.1979 38.3307 39.4375 37.6016 37.602 37.6016H19.1463C17.3108 37.6016 15.5505 38.3307 14.2526 39.6286C12.9546 40.9265 12.2255 42.6869 12.2255 44.5224V49.1363C12.2255 49.7482 11.9824 50.335 11.5498 50.7676C11.1172 51.2002 10.5304 51.4433 9.91853 51.4433C9.30668 51.4433 8.7199 51.2002 8.28726 50.7676C7.85463 50.335 7.61157 49.7482 7.61157 49.1363V44.5224C7.61157 41.4632 8.82684 38.5293 10.99 36.3661C13.1532 34.2029 16.0871 32.9877 19.1463 32.9877H37.602ZM46.8298 19.1459C47.4416 19.1459 48.0284 19.389 48.4611 19.8216C48.8937 20.2543 49.1368 20.841 49.1368 21.4529V23.7598H51.4437C52.0555 23.7598 52.6423 24.0029 53.075 24.4355C53.5076 24.8682 53.7507 25.4549 53.7507 26.0668C53.7507 26.6786 53.5076 27.2654 53.075 27.6981C52.6423 28.1307 52.0555 28.3737 51.4437 28.3737H49.1368V30.6807C49.1368 31.2925 48.8937 31.8793 48.4611 32.312C48.0284 32.7446 47.4416 32.9877 46.8298 32.9877C46.218 32.9877 45.6312 32.7446 45.1985 32.312C44.7659 31.8793 44.5228 31.2925 44.5228 30.6807V28.3737H42.2159C41.604 28.3737 41.0173 28.1307 40.5846 27.6981C40.152 27.2654 39.9089 26.6786 39.9089 26.0668C39.9089 25.4549 40.152 24.8682 40.5846 24.4355C41.0173 24.0029 41.604 23.7598 42.2159 23.7598H44.5228V21.4529C44.5228 20.841 44.7659 20.2543 45.1985 19.8216C45.6312 19.389 46.218 19.1459 46.8298 19.1459ZM28.3742 5.3042C31.4334 5.3042 34.3673 6.51947 36.5305 8.68266C38.6937 10.8458 39.9089 13.7798 39.9089 16.839C39.9089 19.8982 38.6937 22.8321 36.5305 24.9953C34.3673 27.1585 31.4334 28.3737 28.3742 28.3737C25.3149 28.3737 22.381 27.1585 20.2178 24.9953C18.0547 22.8321 16.8394 19.8982 16.8394 16.839C16.8394 13.7798 18.0547 10.8458 20.2178 8.68266C22.381 6.51947 25.3149 5.3042 28.3742 5.3042ZM28.3742 9.91811C27.4653 9.91811 26.5653 10.0971 25.7257 10.4449C24.886 10.7927 24.123 11.3025 23.4804 11.9452C22.8377 12.5878 22.3279 13.3508 21.9801 14.1905C21.6323 15.0301 21.4533 15.9301 21.4533 16.839C21.4533 17.7478 21.6323 18.6478 21.9801 19.4875C22.3279 20.3271 22.8377 21.0901 23.4804 21.7328C24.123 22.3754 24.886 22.8852 25.7257 23.233C26.5653 23.5808 27.4653 23.7598 28.3742 23.7598C30.2097 23.7598 31.97 23.0307 33.268 21.7328C34.5659 20.4348 35.295 18.6745 35.295 16.839C35.295 15.0034 34.5659 13.2431 33.268 11.9452C31.97 10.6473 30.2097 9.91811 28.3742 9.91811Z" fill="black"/>
</svg>
