<svg width="64" height="65" viewBox="0 0 64 65" fill="none" xmlns="http://www.w3.org/2000/svg">
<path d="M55.6214 17.2163L33.6758 5.20106C33.1627 4.91768 32.5861 4.76904 31.9999 4.76904C31.4138 4.76904 30.8372 4.91768 30.3241 5.20106L8.37849 17.2163C7.82936 17.5167 7.37111 17.9593 7.05171 18.4976C6.73231 19.0359 6.56351 19.6502 6.56299 20.2762V44.1271C6.56351 44.753 6.73231 45.3673 7.05171 45.9056C7.37111 46.444 7.82936 46.8865 8.37849 47.187L30.3241 59.2022C30.8373 59.4851 31.4139 59.6335 31.9999 59.6335C32.586 59.6335 33.1625 59.4851 33.6758 59.2022L55.6214 47.187C56.1705 46.8865 56.6287 46.444 56.9481 45.9056C57.2675 45.3673 57.4363 44.753 57.4369 44.1271V20.2762C57.4363 19.6502 57.2675 19.0359 56.9481 18.4976C56.6287 17.9593 56.1705 17.5167 55.6214 17.2163ZM31.7505 7.82456C31.8239 7.78439 31.9063 7.76334 31.99 7.76334C32.0736 7.76334 32.156 7.78439 32.2294 7.82456L53.0752 19.2338L44.6112 23.8648L23.5334 12.3284L31.7505 7.82456ZM30.5036 55.8929L9.80495 44.5635C9.72847 44.5193 9.66508 44.4557 9.62127 44.379C9.57745 44.3023 9.55478 44.2154 9.55557 44.1271V21.8922L30.5036 33.3637V55.8929ZM10.9247 19.2338L20.4186 14.0342L41.4939 25.5706L31.9999 30.7652L10.9247 19.2338ZM54.4443 44.1271C54.4451 44.2154 54.4224 44.3023 54.3786 44.379C54.3348 44.4557 54.2714 44.5193 54.1949 44.5635L33.4962 55.8929V33.3588L42.474 28.4434V38.1868C42.474 38.5836 42.6316 38.9642 42.9122 39.2448C43.1928 39.5254 43.5734 39.6831 43.9703 39.6831C44.3671 39.6831 44.7477 39.5254 45.0283 39.2448C45.3089 38.9642 45.4665 38.5836 45.4665 38.1868V26.8075L54.4443 21.8922V44.1271Z" fill="black"/>
</svg>
