<svg width="58" height="57" viewBox="0 0 58 57" fill="none" xmlns="http://www.w3.org/2000/svg">
<path fill-rule="evenodd" clip-rule="evenodd" d="M29.5086 9.83203C30.1479 8.25041 31.3417 6.95598 32.8665 6.19102C34.3913 5.42606 36.1426 5.24302 37.7927 5.67614C39.4427 6.10927 40.8784 7.12887 41.8309 8.54412C42.7834 9.95937 43.1876 11.6732 42.9676 13.3649C42.7477 15.0567 41.9188 16.6102 40.6361 17.7349C39.3534 18.8596 37.7048 19.4782 35.9988 19.4751C34.2929 19.4719 32.6466 18.8472 31.368 17.7178C30.0894 16.5884 29.2663 15.0317 29.0526 13.3392H18.4784C17.0832 13.3392 15.7451 13.8935 14.7585 14.8801C13.7719 15.8667 13.2176 17.2048 13.2176 18.6C13.2176 19.9953 13.7719 21.3334 14.7585 22.32C15.7451 23.3066 17.0832 23.8608 18.4784 23.8608H43.0288C45.3542 23.8608 47.5844 24.7846 49.2287 26.4289C50.873 28.0732 51.7968 30.3034 51.7968 32.6288C51.7968 34.9542 50.873 37.1844 49.2287 38.8287C47.5844 40.473 45.3542 41.3968 43.0288 41.3968H23.6866C23.473 43.0893 22.6498 44.6459 21.3712 45.7753C20.0927 46.9047 18.4464 47.5295 16.7404 47.5326C15.0345 47.5358 13.3859 46.9171 12.1031 45.7924C10.8204 44.6678 9.99153 43.1142 9.77161 41.4225C9.55169 39.7308 9.95581 38.0169 10.9083 36.6017C11.8609 35.1864 13.2965 34.1668 14.9466 33.7337C16.5966 33.3006 18.3479 33.4836 19.8728 34.2486C21.3976 35.0135 22.5914 36.308 23.2307 37.8896H43.0288C44.424 37.8896 45.7621 37.3353 46.7487 36.3487C47.7353 35.3621 48.2896 34.024 48.2896 32.6288C48.2896 31.2335 47.7353 29.8954 46.7487 28.9089C45.7621 27.9223 44.424 27.368 43.0288 27.368H18.4784C16.153 27.368 13.9228 26.4442 12.2785 24.7999C10.6342 23.1556 9.71045 20.9254 9.71045 18.6C9.71045 16.2746 10.6342 14.0444 12.2785 12.4001C13.9228 10.7558 16.153 9.83203 18.4784 9.83203H29.5086Z" fill="black"/>
</svg>
