<svg width="46" height="45" viewBox="0 0 46 45" fill="none" xmlns="http://www.w3.org/2000/svg">
<path fill-rule="evenodd" clip-rule="evenodd" d="M23.0467 3.51065C17.999 3.51065 13.158 5.51584 9.58876 9.0851C6.0195 12.6544 4.01431 17.4953 4.01431 22.543C4.01431 27.5907 6.0195 32.4317 9.58876 36.0009C13.158 39.5702 17.999 41.5754 23.0467 41.5754C28.0944 41.5754 32.9353 39.5702 36.5046 36.0009C40.0739 32.4317 42.0791 27.5907 42.0791 22.543C42.0791 17.4953 40.0739 12.6544 36.5046 9.0851C32.9353 5.51584 28.0944 3.51065 23.0467 3.51065ZM0.927979 22.543C0.927979 10.3273 10.831 0.424316 23.0467 0.424316C35.2624 0.424316 45.1654 10.3273 45.1654 22.543C45.1654 34.7587 35.2624 44.6617 23.0467 44.6617C10.831 44.6617 0.927979 34.7587 0.927979 22.543ZM23.0467 8.65453C23.456 8.65453 23.8485 8.81711 24.1379 9.10651C24.4273 9.39591 24.5898 9.78842 24.5898 10.1977V10.8499C27.9437 11.4507 30.7625 13.9713 30.7625 17.3991C30.7625 17.8084 30.5999 18.2009 30.3105 18.4903C30.0211 18.7797 29.6286 18.9423 29.2193 18.9423C28.8101 18.9423 28.4176 18.7797 28.1282 18.4903C27.8388 18.2009 27.6762 17.8084 27.6762 17.3991C27.6762 16.0041 26.5157 14.5247 24.5898 13.998V21.1377C27.9437 21.7385 30.7625 24.259 30.7625 27.6869C30.7625 31.1148 27.9437 33.6353 24.5898 34.2361V34.8883C24.5898 35.2976 24.4273 35.6901 24.1379 35.9795C23.8485 36.2689 23.456 36.4315 23.0467 36.4315C22.6374 36.4315 22.2449 36.2689 21.9555 35.9795C21.6661 35.6901 21.5035 35.2976 21.5035 34.8883V34.2361C18.1497 33.6353 15.3309 31.1148 15.3309 27.6869C15.3309 27.2776 15.4934 26.8851 15.7828 26.5957C16.0722 26.3063 16.4647 26.1437 16.874 26.1437C17.2833 26.1437 17.6758 26.3063 17.9652 26.5957C18.2546 26.8851 18.4172 27.2776 18.4172 27.6869C18.4172 29.0819 19.5776 30.5613 21.5035 31.086V23.9483C18.1497 23.3475 15.3309 20.827 15.3309 17.3991C15.3309 13.9713 18.1497 11.4507 21.5035 10.8499V10.1977C21.5035 9.78842 21.6661 9.39591 21.9555 9.10651C22.2449 8.81711 22.6374 8.65453 23.0467 8.65453ZM21.5035 13.998C19.5776 14.5247 18.4172 16.0041 18.4172 17.3991C18.4172 18.7942 19.5776 20.2735 21.5035 20.7982V13.998ZM24.5898 24.2858V31.088C26.5157 30.5613 27.6762 29.084 27.6762 27.6869C27.6762 26.2919 26.5157 24.8104 24.5898 24.2858Z" fill="black"/>
</svg>
