<svg width="25" height="25" viewBox="0 0 25 25" fill="none" xmlns="http://www.w3.org/2000/svg">
<path d="M17.7087 9.37501V7.29168C17.7087 4.37501 15.417 2.08334 12.5003 2.08334C9.58366 2.08334 7.29199 4.37501 7.29199 7.29168V9.37501C5.52116 9.37501 4.16699 10.7292 4.16699 12.5V19.7917C4.16699 21.5625 5.52116 22.9167 7.29199 22.9167H17.7087C19.4795 22.9167 20.8337 21.5625 20.8337 19.7917V12.5C20.8337 10.7292 19.4795 9.37501 17.7087 9.37501ZM9.37533 7.29168C9.37533 5.52084 10.7295 4.16668 12.5003 4.16668C14.2712 4.16668 15.6253 5.52084 15.6253 7.29168V9.37501H9.37533V7.29168Z" fill="white"/>
</svg>
