<svg width="20" height="20" viewBox="0 0 20 20" fill="none" xmlns="http://www.w3.org/2000/svg">
<path d="M10.0007 2.70834C10.1664 2.70834 10.3254 2.77418 10.4426 2.89139C10.5598 3.0086 10.6257 3.16758 10.6257 3.33334C10.6257 3.4991 10.5598 3.65807 10.4426 3.77528C10.3254 3.89249 10.1664 3.95834 10.0007 3.95834C8.3983 3.95834 6.86158 4.59487 5.72855 5.7279C4.59552 6.86093 3.95898 8.39765 3.95898 10C3.95898 11.6024 4.59552 13.1391 5.72855 14.2721C6.86158 15.4051 8.3983 16.0417 10.0007 16.0417C10.1664 16.0417 10.3254 16.1075 10.4426 16.2247C10.5598 16.3419 10.6257 16.5009 10.6257 16.6667C10.6257 16.8324 10.5598 16.9914 10.4426 17.1086C10.3254 17.2258 10.1664 17.2917 10.0007 17.2917C8.06678 17.2917 6.21212 16.5234 4.84466 15.156C3.47721 13.7885 2.70898 11.9339 2.70898 10C2.70898 8.06613 3.47721 6.21147 4.84466 4.84402C6.21212 3.47656 8.06678 2.70834 10.0007 2.70834Z" fill="black"/>
<path d="M13.7256 7.94167C13.6152 7.82319 13.5551 7.66649 13.558 7.50457C13.5609 7.34265 13.6265 7.18816 13.741 7.07365C13.8555 6.95914 14.01 6.89355 14.1719 6.89069C14.3338 6.88784 14.4905 6.94794 14.609 7.05834L17.109 9.55834C17.226 9.67553 17.2918 9.83438 17.2918 10C17.2918 10.1656 17.226 10.3245 17.109 10.4417L14.609 12.9417C14.5518 13.0031 14.4828 13.0523 14.4061 13.0865C14.3294 13.1206 14.2467 13.139 14.1628 13.1405C14.0788 13.142 13.9955 13.1265 13.9177 13.0951C13.8398 13.0637 13.7691 13.0169 13.7098 12.9575C13.6504 12.8982 13.6036 12.8275 13.5722 12.7497C13.5408 12.6718 13.5253 12.5885 13.5268 12.5046C13.5283 12.4207 13.5467 12.3379 13.5808 12.2612C13.615 12.1846 13.6642 12.1156 13.7256 12.0583L15.159 10.625H8.33398C8.16822 10.625 8.00925 10.5592 7.89204 10.4419C7.77483 10.3247 7.70898 10.1658 7.70898 10C7.70898 9.83424 7.77483 9.67527 7.89204 9.55806C8.00925 9.44085 8.16822 9.375 8.33398 9.375H15.159L13.7256 7.94167Z" fill="black"/>
</svg>
