<svg width="20" height="20" viewBox="0 0 20 20" fill="none" xmlns="http://www.w3.org/2000/svg">
<path d="M3.3335 5.83333C3.3335 5.61232 3.42129 5.40036 3.57757 5.24408C3.73385 5.0878 3.94582 5 4.16683 5H15.8335C16.0545 5 16.2665 5.0878 16.4228 5.24408C16.579 5.40036 16.6668 5.61232 16.6668 5.83333C16.6668 6.05435 16.579 6.26631 16.4228 6.42259C16.2665 6.57887 16.0545 6.66667 15.8335 6.66667H4.16683C3.94582 6.66667 3.73385 6.57887 3.57757 6.42259C3.42129 6.26631 3.3335 6.05435 3.3335 5.83333ZM3.3335 10C3.3335 9.77899 3.42129 9.56702 3.57757 9.41074C3.73385 9.25446 3.94582 9.16667 4.16683 9.16667H15.8335C16.0545 9.16667 16.2665 9.25446 16.4228 9.41074C16.579 9.56702 16.6668 9.77899 16.6668 10C16.6668 10.221 16.579 10.433 16.4228 10.5893C16.2665 10.7455 16.0545 10.8333 15.8335 10.8333H4.16683C3.94582 10.8333 3.73385 10.7455 3.57757 10.5893C3.42129 10.433 3.3335 10.221 3.3335 10ZM3.3335 14.1667C3.3335 13.9457 3.42129 13.7337 3.57757 13.5774C3.73385 13.4211 3.94582 13.3333 4.16683 13.3333H15.8335C16.0545 13.3333 16.2665 13.4211 16.4228 13.5774C16.579 13.7337 16.6668 13.9457 16.6668 14.1667C16.6668 14.3877 16.579 14.5996 16.4228 14.7559C16.2665 14.9122 16.0545 15 15.8335 15H4.16683C3.94582 15 3.73385 14.9122 3.57757 14.7559C3.42129 14.5996 3.3335 14.3877 3.3335 14.1667Z" fill="white"/>
</svg>
