<svg width="20" height="20" viewBox="0 0 20 20" fill="none" xmlns="http://www.w3.org/2000/svg">
<path d="M13.8573 11.5758L14.2373 11.1983L13.3548 10.3117L12.9765 10.6892L13.8573 11.5758ZM15.5115 11.04L17.104 11.9058L17.6998 10.8075L16.1082 9.94251L15.5115 11.04ZM17.4098 13.6258L16.2265 14.8033L17.1073 15.6892L18.2907 14.5125L17.4098 13.6258ZM15.5048 15.1817C14.2965 15.295 11.1715 15.1942 7.78649 11.8292L6.90482 12.715C10.5982 16.3875 14.114 16.5675 15.6215 16.4267L15.5048 15.1817ZM7.78649 11.8292C4.56065 8.62084 4.02565 5.92334 3.95899 4.75251L2.71065 4.82334C2.79399 6.29667 3.45649 9.28667 6.90482 12.715L7.78649 11.8292ZM8.93232 6.67917L9.17149 6.44084L8.29149 5.55501L8.05232 5.79251L8.93232 6.67917ZM9.36149 3.41167L8.31149 2.00834L7.31065 2.75834L8.36065 4.16084L9.36149 3.41167ZM4.77732 1.70251L3.46899 3.00251L4.35065 3.88917L5.65815 2.58917L4.77732 1.70251ZM8.49232 6.23584C8.05065 5.79251 8.05065 5.79251 8.05065 5.79417H8.04899L8.04649 5.79751C8.00688 5.83744 7.97143 5.88127 7.94065 5.92834C7.89565 5.99501 7.84649 6.08251 7.80482 6.19334C7.70338 6.47945 7.67811 6.78702 7.73149 7.08584C7.84315 7.80667 8.33982 8.75917 9.61149 10.0242L10.4932 9.13751C9.30232 7.95417 9.01899 7.23417 8.96649 6.89417C8.94149 6.73251 8.96732 6.65251 8.97482 6.63417C8.97982 6.62306 8.97982 6.6214 8.97482 6.62917C8.96739 6.64067 8.95903 6.65154 8.94982 6.66167L8.94149 6.67001L8.93315 6.67751L8.49232 6.23584ZM9.61149 10.0242C10.884 11.2892 11.8415 11.7825 12.5632 11.8925C12.9323 11.9492 13.2298 11.9042 13.4557 11.82C13.5822 11.7737 13.7003 11.7073 13.8057 11.6233L13.8473 11.5858L13.8532 11.5808L13.8557 11.5783L13.8565 11.5767C13.8565 11.5767 13.8573 11.5758 13.4165 11.1325C12.9748 10.6892 12.9773 10.6883 12.9773 10.6883L12.979 10.6867L12.9807 10.685L12.9857 10.6808L12.994 10.6725L13.0257 10.6475C13.0334 10.6425 13.0315 10.6431 13.0198 10.6492C12.999 10.6567 12.9173 10.6825 12.7532 10.6575C12.4082 10.6042 11.6832 10.3208 10.4932 9.13751L9.61149 10.0242ZM8.31149 2.00751C7.46149 0.874174 5.79149 0.694174 4.77732 1.70251L5.65815 2.58917C6.10149 2.14834 6.88815 2.19417 7.31065 2.75834L8.31149 2.00751ZM3.95982 4.75334C3.94315 4.46501 4.07565 4.16334 4.35065 3.89001L3.46815 3.00334C3.02065 3.44834 2.66815 4.07834 2.71065 4.82334L3.95982 4.75334ZM16.2265 14.8033C15.9982 15.0317 15.7515 15.16 15.5057 15.1825L15.6215 16.4267C16.234 16.3692 16.7348 16.0608 17.1082 15.69L16.2265 14.8033ZM9.17149 6.44084C9.99232 5.62501 10.0532 4.33584 9.36232 3.41251L8.36149 4.16167C8.69732 4.61084 8.64732 5.20001 8.29065 5.55584L9.17149 6.44084ZM17.1048 11.9067C17.7857 12.2767 17.8915 13.1483 17.4107 13.6267L18.2923 14.5125C19.409 13.4017 19.0648 11.5492 17.7007 10.8083L17.1048 11.9067ZM14.2373 11.1992C14.5573 10.8808 15.0723 10.8025 15.5123 11.0408L16.109 9.94334C15.2057 9.45167 14.0857 9.58751 13.3557 10.3125L14.2373 11.1992Z" fill="white"/>
</svg>
