<svg width="21" height="21" viewBox="0 0 21 21" fill="none" xmlns="http://www.w3.org/2000/svg">
<path d="M8.85062 19.0846C9.38087 19.5221 9.93387 19.922 10.5 20.3123C11.0673 19.9272 11.6177 19.5176 12.1494 19.0846C13.0358 18.3568 13.8699 17.5677 14.6458 16.723C16.4343 14.7674 18.375 11.9324 18.375 8.75C18.375 7.71584 18.1713 6.69181 17.7756 5.73637C17.3798 4.78093 16.7997 3.9128 16.0685 3.18153C15.3372 2.45027 14.4691 1.8702 13.5136 1.47445C12.5582 1.07869 11.5342 0.875 10.5 0.875C9.46584 0.875 8.44181 1.07869 7.48637 1.47445C6.53093 1.8702 5.6628 2.45027 4.93153 3.18153C4.20027 3.9128 3.6202 4.78093 3.22445 5.73637C2.82869 6.69181 2.625 7.71584 2.625 8.75C2.625 11.9324 4.56575 14.7665 6.35425 16.723C7.13004 17.568 7.96422 18.3565 8.85062 19.0846ZM10.5 11.5938C9.74579 11.5938 9.02247 11.2941 8.48917 10.7608C7.95586 10.2275 7.65625 9.50421 7.65625 8.75C7.65625 7.99579 7.95586 7.27247 8.48917 6.73917C9.02247 6.20586 9.74579 5.90625 10.5 5.90625C11.2542 5.90625 11.9775 6.20586 12.5108 6.73917C13.0441 7.27247 13.3437 7.99579 13.3438 8.75C13.3437 9.50421 13.0441 10.2275 12.5108 10.7608C11.9775 11.2941 11.2542 11.5938 10.5 11.5938Z" fill="#45894D"/>
</svg>
