<svg width="28" height="28" viewBox="0 0 28 28" fill="none" xmlns="http://www.w3.org/2000/svg">
<path d="M15.1666 7.00016C15.1666 6.69074 15.0437 6.394 14.8249 6.17521C14.6061 5.95641 14.3093 5.8335 13.9999 5.8335C13.6905 5.8335 13.3938 5.95641 13.175 6.17521C12.9562 6.394 12.8333 6.69074 12.8333 7.00016V12.8335H6.99992C6.6905 12.8335 6.39375 12.9564 6.17496 13.1752C5.95617 13.394 5.83325 13.6907 5.83325 14.0002C5.83325 14.3096 5.95617 14.6063 6.17496 14.8251C6.39375 15.0439 6.6905 15.1668 6.99992 15.1668H12.8333V21.0002C12.8333 21.3096 12.9562 21.6063 13.175 21.8251C13.3938 22.0439 13.6905 22.1668 13.9999 22.1668C14.3093 22.1668 14.6061 22.0439 14.8249 21.8251C15.0437 21.6063 15.1666 21.3096 15.1666 21.0002V15.1668H20.9999C21.3093 15.1668 21.6061 15.0439 21.8249 14.8251C22.0437 14.6063 22.1666 14.3096 22.1666 14.0002C22.1666 13.6907 22.0437 13.394 21.8249 13.1752C21.6061 12.9564 21.3093 12.8335 20.9999 12.8335H15.1666V7.00016Z" fill="black"/>
</svg>
