<svg width="20" height="20" viewBox="0 0 20 20" fill="none" xmlns="http://www.w3.org/2000/svg">
<path d="M15.9766 6.76758C16.3997 6.98242 16.7806 7.24609 17.1191 7.55859C17.4577 7.87109 17.7507 8.22266 17.998 8.61328C18.2454 9.00391 18.431 9.42057 18.5547 9.86328C18.6784 10.306 18.7435 10.7682 18.75 11.25H17.5C17.5 10.7357 17.4023 10.2507 17.207 9.79492C17.0117 9.33919 16.7415 8.94206 16.3965 8.60352C16.0514 8.26497 15.6543 7.99805 15.2051 7.80273C14.7559 7.60742 14.2708 7.50651 13.75 7.5C13.2357 7.5 12.7507 7.59766 12.2949 7.79297C11.8392 7.98828 11.4421 8.25846 11.1035 8.60352C10.765 8.94857 10.498 9.3457 10.3027 9.79492C10.1074 10.2441 10.0065 10.7292 10 11.25C10 11.8424 9.86654 12.4056 9.59961 12.9395C9.33268 13.4733 8.95833 13.916 8.47656 14.2676C8.89974 14.4824 9.2806 14.7461 9.61914 15.0586C9.95768 15.3711 10.2507 15.7227 10.498 16.1133C10.7454 16.5039 10.931 16.9206 11.0547 17.3633C11.1784 17.806 11.2435 18.2682 11.25 18.75H10C10 18.2357 9.90234 17.7507 9.70703 17.2949C9.51172 16.8392 9.24154 16.4421 8.89648 16.1035C8.55143 15.765 8.1543 15.498 7.70508 15.3027C7.25586 15.1074 6.77083 15.0065 6.25 15C5.73568 15 5.25065 15.0977 4.79492 15.293C4.33919 15.4883 3.94206 15.7585 3.60352 16.1035C3.26497 16.4486 2.99805 16.8457 2.80273 17.2949C2.60742 17.7441 2.50651 18.2292 2.5 18.75H1.25C1.25 18.2747 1.3151 17.8158 1.44531 17.373C1.57552 16.9303 1.76107 16.5137 2.00195 16.123C2.24284 15.7324 2.53255 15.3809 2.87109 15.0684C3.20964 14.7559 3.59375 14.4889 4.02344 14.2676C3.54818 13.916 3.17708 13.4733 2.91016 12.9395C2.64323 12.4056 2.50651 11.8424 2.5 11.25C2.5 10.7357 2.59766 10.2507 2.79297 9.79492C2.98828 9.33919 3.25846 8.94206 3.60352 8.60352C3.94857 8.26497 4.3457 7.99805 4.79492 7.80273C5.24414 7.60742 5.72917 7.50651 6.25 7.5C6.84245 7.5 7.4056 7.63346 7.93945 7.90039C8.47331 8.16732 8.91602 8.54167 9.26758 9.02344C9.51497 8.53516 9.83073 8.09896 10.2148 7.71484C10.599 7.33073 11.0352 7.01497 11.5234 6.76758C11.0482 6.41602 10.6771 5.97331 10.4102 5.43945C10.1432 4.9056 10.0065 4.34245 10 3.75C10 3.23568 10.0977 2.75065 10.293 2.29492C10.4883 1.83919 10.7585 1.44206 11.1035 1.10352C11.4486 0.764974 11.8457 0.498047 12.2949 0.302734C12.7441 0.107422 13.2292 0.00651042 13.75 0C14.2643 0 14.7493 0.0976562 15.2051 0.292969C15.6608 0.488281 16.0579 0.758464 16.3965 1.10352C16.735 1.44857 17.002 1.8457 17.1973 2.29492C17.3926 2.74414 17.4935 3.22917 17.5 3.75C17.5 4.34245 17.3665 4.9056 17.0996 5.43945C16.8327 5.97331 16.4583 6.41602 15.9766 6.76758ZM6.25 13.75C6.58854 13.75 6.91081 13.6849 7.2168 13.5547C7.52279 13.4245 7.78646 13.2454 8.00781 13.0176C8.22917 12.7897 8.4082 12.526 8.54492 12.2266C8.68164 11.9271 8.75 11.6016 8.75 11.25C8.75 10.9115 8.6849 10.5892 8.55469 10.2832C8.42448 9.97721 8.24544 9.71354 8.01758 9.49219C7.78971 9.27083 7.52279 9.0918 7.2168 8.95508C6.91081 8.81836 6.58854 8.75 6.25 8.75C5.90495 8.75 5.58268 8.8151 5.2832 8.94531C4.98372 9.07552 4.72005 9.25456 4.49219 9.48242C4.26432 9.71029 4.08529 9.97721 3.95508 10.2832C3.82487 10.5892 3.75651 10.9115 3.75 11.25C3.75 11.5951 3.8151 11.9173 3.94531 12.2168C4.07552 12.5163 4.25456 12.7799 4.48242 13.0078C4.71029 13.2357 4.97396 13.4147 5.27344 13.5449C5.57292 13.6751 5.89844 13.7435 6.25 13.75ZM11.25 3.75C11.25 4.09505 11.3151 4.41732 11.4453 4.7168C11.5755 5.01628 11.7546 5.27995 11.9824 5.50781C12.2103 5.73568 12.474 5.91471 12.7734 6.04492C13.0729 6.17513 13.3984 6.24349 13.75 6.25C14.0885 6.25 14.4108 6.1849 14.7168 6.05469C15.0228 5.92448 15.2865 5.74544 15.5078 5.51758C15.7292 5.28971 15.9082 5.02604 16.0449 4.72656C16.1816 4.42708 16.25 4.10156 16.25 3.75C16.25 3.41146 16.1849 3.08919 16.0547 2.7832C15.9245 2.47721 15.7454 2.21354 15.5176 1.99219C15.2897 1.77083 15.0228 1.5918 14.7168 1.45508C14.4108 1.31836 14.0885 1.25 13.75 1.25C13.4049 1.25 13.0827 1.3151 12.7832 1.44531C12.4837 1.57552 12.2201 1.75456 11.9922 1.98242C11.7643 2.21029 11.5853 2.47721 11.4551 2.7832C11.3249 3.08919 11.2565 3.41146 11.25 3.75Z" fill="white"/>
</svg>
