<svg width="20" height="20" viewBox="0 0 20 20" fill="none" xmlns="http://www.w3.org/2000/svg">
<path d="M17.4392 7.49167C11.9308 6.735 8.01417 10.825 8.33333 16.25M5 7.5C5 7.94203 5.17559 8.36595 5.48816 8.67851C5.80072 8.99107 6.22464 9.16667 6.66667 9.16667C7.10869 9.16667 7.53262 8.99107 7.84518 8.67851C8.15774 8.36595 8.33333 7.94203 8.33333 7.5C8.33333 7.05797 8.15774 6.63405 7.84518 6.32149C7.53262 6.00893 7.10869 5.83334 6.66667 5.83334C6.22464 5.83334 5.80072 6.00893 5.48816 6.32149C5.17559 6.63405 5 7.05797 5 7.5Z" stroke="white" stroke-width="1.25" stroke-linecap="round" stroke-linejoin="round"/>
<path d="M2.5 10.8883C4.81667 10.5675 7.37583 11.9658 8.5 13.75" stroke="white" stroke-width="1.25" stroke-linecap="round" stroke-linejoin="round"/>
<path d="M1.96484 7.75C1.96484 6.35 1.96484 5.65 2.23734 5.115C2.47702 4.64462 2.85946 4.26218 3.32984 4.0225C3.86484 3.75 4.56484 3.75 5.96484 3.75H14.0365C15.4365 3.75 16.1365 3.75 16.6715 4.0225C17.1416 4.26232 17.5237 4.64474 17.7632 5.115C18.0365 5.65 18.0365 6.35 18.0365 7.75V12.25C18.0365 13.65 18.0365 14.35 17.764 14.885C17.5243 15.3554 17.1419 15.7378 16.6715 15.9775C16.1365 16.25 15.4365 16.25 14.0365 16.25H5.96484C4.56484 16.25 3.86484 16.25 3.32984 15.9775C2.85977 15.7377 2.47764 15.3553 2.23818 14.885C1.96484 14.35 1.96484 13.65 1.96484 12.25V7.75Z" stroke="white" stroke-width="1.25" stroke-linecap="round" stroke-linejoin="round"/>
</svg>
