<svg width="15" height="15" viewBox="0 0 15 15" fill="none" xmlns="http://www.w3.org/2000/svg">
<path d="M13.3333 6.66667V5H6.66667V1.66667H5V5H1.66667V6.66667H5V13.3333H6.66667V6.66667H13.3333ZM13.3333 0C13.75 0 14.1667 0.166667 14.4917 0.508333C14.8333 0.833333 15 1.25 15 1.66667V13.3333C15 13.75 14.8333 14.1667 14.4917 14.4917C14.1667 14.8333 13.75 15 13.3333 15H1.66667C1.25 15 0.833333 14.8333 0.508333 14.4917C0.166667 14.1667 0 13.75 0 13.3333V1.66667C0 1.25 0.166667 0.833333 0.508333 0.508333C0.833333 0.166667 1.25 0 1.66667 0H13.3333Z" fill="#27A055"/>
</svg>
