<svg width="20" height="20" viewBox="0 0 20 20" fill="none" xmlns="http://www.w3.org/2000/svg">
<path d="M16.8753 8C17.506 8.36318 18.0173 8.90203 18.3471 9.55085C18.6768 10.1997 18.8106 10.9304 18.7321 11.6539C18.6537 12.3775 18.3664 13.0626 17.9052 13.6256C17.4441 14.1887 16.8291 14.6054 16.1353 14.825C15.89 15.9379 15.2721 16.9337 14.3837 17.6474C13.4954 18.3612 12.3899 18.7502 11.2503 18.75H9.37527C9.20951 18.75 9.05054 18.6842 8.93333 18.5669C8.81612 18.4497 8.75027 18.2908 8.75027 18.125C8.75027 17.9592 8.81612 17.8003 8.93333 17.6831C9.05054 17.5658 9.20951 17.5 9.37527 17.5H11.2503C12.026 17.5002 12.7828 17.2599 13.4163 16.8122C14.0499 16.3645 14.529 15.7314 14.7878 15H14.3753C14.2095 15 14.0505 14.9342 13.9333 14.8169C13.8161 14.6997 13.7503 14.5408 13.7503 14.375V8.125C13.7503 7.95924 13.8161 7.80027 13.9333 7.68306C14.0505 7.56585 14.2095 7.5 14.3753 7.5H15.0003C15.2028 7.5 15.4015 7.51625 15.5965 7.5475C15.4558 6.16112 14.8055 4.87631 13.7716 3.94203C12.7377 3.00774 11.3938 2.49049 10.0003 2.49049C8.60676 2.49049 7.26286 3.00774 6.22895 3.94203C5.19504 4.87631 4.54473 6.16112 4.40402 7.5475C4.6012 7.5159 4.80058 7.50001 5.00027 7.5H5.62527C5.79103 7.5 5.95 7.56585 6.06721 7.68306C6.18442 7.80027 6.25027 7.95924 6.25027 8.125V14.375C6.25027 14.5408 6.18442 14.6997 6.06721 14.8169C5.95 14.9342 5.79103 15 5.62527 15H5.00027C4.174 15.0009 3.37055 14.7289 2.71477 14.2262C2.05898 13.7236 1.58758 13.0184 1.37379 12.2203C1.16 11.4221 1.21581 10.5757 1.53253 9.81256C1.84926 9.0494 2.40917 8.41222 3.12527 8C3.12527 6.17664 3.8496 4.42795 5.13891 3.13864C6.42822 1.84933 8.17691 1.125 10.0003 1.125C11.8236 1.125 13.5723 1.84933 14.8616 3.13864C16.1509 4.42795 16.8753 6.17664 16.8753 8ZM5.00027 8.75C4.33723 8.75 3.70134 9.01339 3.2325 9.48223C2.76366 9.95107 2.50027 10.587 2.50027 11.25C2.50027 11.913 2.76366 12.5489 3.2325 13.0178C3.70134 13.4866 4.33723 13.75 5.00027 13.75V8.75ZM17.5003 11.25C17.5003 10.587 17.2369 9.95107 16.768 9.48223C16.2992 9.01339 15.6633 8.75 15.0003 8.75V13.75C15.6633 13.75 16.2992 13.4866 16.768 13.0178C17.2369 12.5489 17.5003 11.913 17.5003 11.25Z" fill="white"/>
</svg>
