<svg width="42" height="42" viewBox="0 0 42 42" fill="none" xmlns="http://www.w3.org/2000/svg">
<path d="M21 1.3125C10.1269 1.3125 1.3125 10.1269 1.3125 21C1.3125 31.8731 10.1269 40.6875 21 40.6875C31.8731 40.6875 40.6875 31.8731 40.6875 21C40.6875 10.1269 31.8731 1.3125 21 1.3125ZM33.065 33.065C30.0733 36.0477 26.0784 37.8098 21.8585 38.0079C17.6386 38.206 13.4962 36.8259 10.2383 34.1366C6.98035 31.4472 4.84039 27.6413 4.23534 23.4603C3.6303 19.2793 4.60352 15.0229 6.96537 11.5203C9.32722 8.01768 12.9085 5.51987 17.0114 4.51354C21.1143 3.50722 25.4449 4.06447 29.1594 6.07671C32.8739 8.08895 35.7062 11.412 37.1044 15.3985C38.5025 19.3849 38.3665 23.7491 36.7227 27.6407C35.866 29.6685 34.6238 31.5107 33.065 33.065Z" fill="#45894D"/>
<path d="M10.5 15.75H13.7812V19.0312H10.5V15.75ZM27.5625 15.75H30.8438V19.0312H27.5625V15.75ZM19.0312 25.1793C19.0312 25.1408 19.0365 25.1025 19.0472 25.0656L21.6562 15.9338V13.7812H19.0312V15.5662L16.5232 24.3443C16.394 24.7966 16.3715 25.2728 16.4575 25.7353C16.5436 26.1978 16.7358 26.634 17.0191 27.0096C17.3024 27.3852 17.669 27.6899 18.0901 27.8997C18.5112 28.1095 18.9752 28.2187 19.4457 28.2188H24.2812V25.5938H19.4457C19.3358 25.5936 19.2304 25.5499 19.1528 25.4722C19.0751 25.3946 19.0314 25.2892 19.0312 25.1793Z" fill="#45894D"/>
</svg>
